<svg viewBox="0 0 127 149" fill="none" xmlns="http://www.w3.org/2000/svg"><path d="M104.309 11.632c1.782 7.831-.471 16.862-5.372 19.453-1.946 1.033-3.898.843-5.621-.278l-1.704-1.49a9.209 9.209 0 01-.73-.929c1.482.687 3.117.688 4.762-.152 4.887-2.506 7.298-11.241 5.698-18.845-.625-2.979-1.792-5.379-3.255-7.008 2.727 1.118 5.128 4.454 6.222 9.249z" fill="#255A7F"/><path d="M101.343 9.39c1.6 7.603-.811 16.339-5.697 18.845-1.646.84-3.28.838-4.763.152l-.005-.001c-1.573-2.208-2.722-5.364-3.119-9.084-.845-7.893 2.088-15.183 6.36-16.934 1.327-.54 2.68-.514 3.969.012 1.463 1.63 2.631 4.03 3.255 7.01z" fill="#356387"/><path d="M89.876 27.807c-2.601-1.84-4.574-5.869-5.032-10.989C84.157 9.15 87.196 2.075 91.457.386c2.33-.937 4.724-.128 6.63 1.996-1.29-.528-2.644-.552-3.97-.012-4.272 1.75-7.205 9.04-6.36 16.933.398 3.721 1.547 6.876 3.12 9.084a6.151 6.151 0 01-.964-.558l-.037-.022z" fill="#356387"/><path d="M91.61 29.315l-1.698-1.488c.314.219.631.406.963.557l.005.001c.227.332.474.642.73.93z" fill="#5B637D"/><path d="M126.157 81.894l-.565.983-10.495-6.004V75.54l11.06 6.355z" fill="#013C56"/><path d="M115.096 101.147v25.74l-19.38 12.071V116.76l7.829 4.496 3.031-5.28 4.502-2.54v-5.293l4.018-6.996z" fill="#2C5266"/><path d="M94.421 115.521l-.42.255-10.863-6.24v-.478l.036.022 21.82-37.984 10.1 5.777v24.274l-4.019 6.996v-9.044l-1.279-.36v-.005h-.005l-7.05 3.983v14.339l-.005.022 1.283.336v.006l.01-.006 2.544-1.438-3.031 5.28-7.829-4.496v-.706h-.004l-1.284-.528-.004-.005z" fill="#2A5C77"/><path d="M115.095 75.54v1.334l-10.1-5.777.588-1.019 9.512 5.462z" fill="#013C56"/><path d="M111.078 108.144v5.293l-4.501 2.54.923-1.607 2.299-1.298v-2.703l1.279-2.225zM111.076 99.1v9.045l-1.279 2.226V99.824l1.279-.724z" fill="#2D5270"/><path d="M111.076 99.1l-1.279.723V98.74l1.279.36z" fill="#224956"/><path d="M109.793 110.37v2.703l-2.299 1.297 2.299-4z" fill="#244461"/><path d="M104.021 103.087v-.004l5.776-3.26v10.547l-2.299 4-3.477 1.962v-13.245z" fill="#244461"/><path d="M109.799 98.74v1.083l-5.776 3.26v.004l-1.278-.369 7.049-3.983.005.005z" fill="#224956"/><path d="M107.499 114.369l-.924 1.607-2.544 1.438h-.01v-1.083l3.478-1.962z" fill="#2D5270"/><path d="M104.994 71.098l-21.82 37.984-.036-.022v-2.618l.036.023 20.358-35.44 1.776-1.106.274.16-.588 1.019z" fill="#003546"/><path d="M105.308 69.919l-1.776 1.106.915-1.598.861.492z" fill="#003546"/><path d="M104.656 69.067l-.21.36-35.514-20.401-7.414 12.908-5.32-3.2a2.201 2.201 0 00-3.023.75 2.17 2.17 0 00-.3 1.358 2.195 2.195 0 00.9 2.722l5.057 3.04L47.66 86.063 27.082 74.246 48.564 36.85l56.092 32.218z" fill="#256E8E"/><path d="M104.446 69.426l-.915 1.598-23.94 14.911v18.471L47.66 86.063l11.173-19.46 18.22 10.957a2.198 2.198 0 003.318-2.108 2.204 2.204 0 00-.9-2.727L61.517 61.933l7.414-12.908 35.514 20.4z" fill="#20495B"/><path d="M104.02 116.333v1.083l-1.283-.337.005-.022 1.278-.724z" fill="#274C5B"/><path d="M104.023 103.087v13.245l-1.278.724v-14.338l1.278.369z" fill="#274C5B"/><path d="M83.14 106.441l-3.545-2.035v-18.47l23.94-14.912-20.358 35.44-.036-.023z" fill="#20495B"/><path d="M95.713 116.76v22.198l-11.037 6.874v-1.266l9.75-5.831v-21.912l.686-.409.601.346zM95.714 116.058v.701l-.6-.346.596-.36.004.005z" fill="#244461"/><path d="M95.71 116.055l-.596.36-.687-.392v-.496l1.284.528z" fill="#224956"/><path d="M95.114 116.413l-.687.409v-.801l.687.392z" fill="#224956"/><path d="M84.68 122.655l9.745-5.831v21.912l-9.749 5.831v-21.912h.005z" fill="#244461"/><path d="M94.424 116.021v.802l-9.745 5.831-1.287-.537L94 115.776l.424.245z" fill="#224956"/><path d="M94.427 115.527v.496l-.423-.246.42-.255.003.005z" fill="#274C5B"/><path d="M83.14 109.537l10.864 6.24-10.608 6.341-.005.004v23.209l.005.004 1.252.52L79.595 149V107.501l3.546 2.036z" fill="#2C5266"/><path d="M83.392 122.117l1.287.537h-.004v21.912l-1.283.769-.005-.005v-23.209l.005-.004zM84.675 144.568v1.266l-.031.022-1.252-.519 1.283-.769z" fill="#274C5B"/><path d="M83.14 109.06v.478l-3.545-2.035v-.478l3.546 2.035zM83.14 106.442v2.617l-3.545-2.035v-2.618l3.546 2.036z" fill="#013C56"/><path d="M79.47 72.727a2.203 2.203 0 01.9 2.727 2.188 2.188 0 00-1.05-1.662L61.028 62.79l.491-.855 17.95 10.792z" fill="#003546"/><path d="M80.372 75.453a2.198 2.198 0 01-3.319 2.108L58.836 66.604l.491-.855 17.878 10.75a2.203 2.203 0 003.168-1.046z" fill="#013C56"/><path d="M80.37 75.452a2.203 2.203 0 01-3.168 1.047L59.324 65.748l1.702-2.96L79.318 73.79c.615.37.983.993 1.051 1.662z" fill="#013C56"/><path d="M33.172 109.478V80.356L46.53 88.03l-.204.36 33.27 19.112v41.489l-46.424-26.741v-12.773zm4.402-18.107v14.898l7.395 5.234 1.361-.232.005.004V96.369l-7.378-5.22-.018-.014v.013l-1.357.223-.008-.008v.008zm29.128 32.077v-14.903l-7.378-5.221-.019-.014v.014l-1.356.223-.01-.009v14.907l7.397 5.234 1.36-.232.005.004v-.003z" fill="#B6D2E5"/><path d="M79.593 107.024v.478l-33.27-19.113.204-.36 33.066 18.995z" fill="#013C56"/><path d="M79.594 106.487v.537L46.528 88.03l.255-.446 32.81 18.903zM79.592 104.404v2.081L46.78 87.582l.878-1.52 31.933 18.342z" fill="#013C56"/><path d="M66.7 108.546v14.902h-.004l-1.361-.96v-13.71l1.365-.232z" fill="#2D5876"/><path d="M66.698 108.545l-1.366.232v-.004l-6.03-4.269v-1.179h.018l7.378 5.22z" fill="#264C60"/><path d="M66.696 123.447l-1.361.232v-1.193l1.361.961z" fill="#2D5876"/><path d="M65.33 122.488v1.192l-7.395-5.234v-14.899h.008l1.357.957v13.714l6.03 4.27z" fill="#496573"/><path d="M65.332 108.776v13.71l-6.03-4.269v-13.715l6.03 4.27v.004z" fill="#244461"/><path d="M61.522 61.934l-.491.855-4.984-2.995a2.201 2.201 0 00-3.168 1.048c-.05-.455.046-.933.301-1.357a2.201 2.201 0 013.023-.75l5.32 3.199z" fill="#003546"/><path d="M61.031 62.789l-1.702 2.959-5.398-3.246a2.186 2.186 0 01-1.052-1.661 2.2 2.2 0 013.168-1.048l4.984 2.996z" fill="#013C56"/><path d="M59.325 65.749l-.491.855-5.057-3.04a2.195 2.195 0 01-.901-2.721 2.188 2.188 0 001.05 1.661l5.4 3.245z" fill="#013C56"/><path d="M59.3 103.325v1.179l-1.357-.957 1.357-.222z" fill="#264C60"/><path d="M47.66 86.064l-.878 1.52-13.613-7.842v.615l-7.214-4.142 1.129-1.967L47.66 86.064z" fill="#013C56"/><path d="M46.785 87.585l-.254.446-13.359-7.674v-.615l13.613 7.843z" fill="#013C56"/><path d="M46.333 96.367v14.903h-.005l-1.36-.96V96.6l1.365-.233z" fill="#2D5876"/><path d="M46.33 96.367l-1.365.233v-.005l-6.03-4.27v-1.178h.018l7.377 5.22z" fill="#264C60"/><path d="M46.328 111.271l-1.36.232v-1.192l1.36.96z" fill="#2D5876"/><path d="M44.967 110.312v1.193l-7.396-5.235V91.372h.009l1.357.956v13.714l6.03 4.27z" fill="#496573"/><path d="M44.965 96.603v13.71l-6.03-4.27V92.328l6.03 4.27v.005z" fill="#244461"/><path d="M38.942 91.147v1.179l-1.357-.956 1.357-.223z" fill="#264C60"/><path d="M25.91 73.597v2.617h.044l7.215 4.143v29.122l-9.144 3.478a3.644 3.644 0 00-3.068-3.046V56.447l.045.019 10.195-8.616 1.739 13.591-6.982 12.158h-.045v-.002z" fill="#255A7F"/><path d="M31.198 47.847l-10.195 8.616-.045-.017V52.03l-6.864-3.75 5.758-4.867 11.346 4.434z" fill="#336F8E"/><path d="M25.956 73.597l1.13.652-1.13 1.966h-.045v-2.618h.045z" fill="#255A7F"/><path d="M24.066 113.515v6.067a3.64 3.64 0 11-7.28-.001v-6.067c0-.533.113-1.043.322-1.498l3.85 2.104 3.068-1.165c.027.182.04.369.04.56z" fill="#013C56"/><path d="M24.025 112.954l-3.068 1.165v-4.21a3.652 3.652 0 012.044 1.028 3.632 3.632 0 011.024 2.017z" fill="#255A7F"/><path d="M20.959 109.908v4.21l-3.85-2.103a3.642 3.642 0 013.317-2.143c.182 0 .36.014.533.036z" fill="#85C4EB"/><path d="M20.958 56.448v53.464a3.642 3.642 0 00-3.85 2.107L.555 102.97v-.305L9.58 52.017l.077.014 11.301 4.417z" fill="#85C4EB"/><path d="M20.956 52.029v4.415l-11.3-4.415 4.436-3.751 6.864 3.75z" fill="#336F8E"/><path d="M48.152 88.935L26.523 76.14" stroke="#013C56" stroke-width="1.043" stroke-miterlimit="10"/><path d="M27.066 79.282a.778.778 0 01-1.556 0v-5.69a.778.778 0 011.556 0v5.69z" fill="#255A7F"/><path d="M33.36 63.142L24.49 78.58l-.78-4.63 8.87-15.438.78 4.631zM84.525 38.992c1.782 7.83-.47 16.862-5.372 19.452-1.946 1.034-3.897.844-5.62-.277l-1.705-1.49a9.209 9.209 0 01-.73-.929c1.483.686 3.117.688 4.763-.152 4.886-2.507 7.297-11.241 5.697-18.845-.625-2.979-1.792-5.38-3.255-7.008 2.727 1.117 5.128 4.453 6.222 9.249z" fill="#255A7F"/><path d="M81.56 36.75c1.599 7.603-.812 16.339-5.698 18.844-1.646.84-3.28.839-4.763.152h-.005c-1.573-2.209-2.722-5.364-3.119-9.085-.845-7.893 2.088-15.183 6.36-16.933 1.327-.54 2.68-.515 3.969.012 1.463 1.63 2.631 4.03 3.255 7.01z" fill="#356387"/><path d="M78.303 29.74c-1.289-.527-2.642-.551-3.968-.011-4.273 1.75-7.205 9.04-6.36 16.933.397 3.721 1.546 6.876 3.119 9.084a6.152 6.152 0 01-.963-.558l-.037-.022c-2.602-1.84-4.574-5.868-5.033-10.988-.687-7.669 2.352-14.743 6.613-16.432 2.33-.938 4.724-.129 6.63 1.995z" fill="#356387"/><path d="M71.826 56.675l-1.698-1.489c.314.22.631.407.963.558l.005.001c.226.332.473.642.73.93z" fill="#5B637D"/></svg>