<svg width="22" height="12" viewBox="0 0 22 12" fill="none" xmlns="http://www.w3.org/2000/svg">
<path fill-rule="evenodd" clip-rule="evenodd" d="M1.07017 0.988995C1.14041 0.918576 1.22385 0.862707 1.31572 0.824587C1.40759 0.786467 1.50607 0.766846 1.60553 0.766846C1.70499 0.766846 1.80347 0.786467 1.89534 0.824587C1.98721 0.862707 2.07065 0.918576 2.14089 0.988995L10.6794 9.52902L19.2179 0.988995C19.2882 0.91869 19.3717 0.862922 19.4635 0.824873C19.5554 0.786825 19.6538 0.767242 19.7533 0.767242C19.8527 0.767242 19.9512 0.786825 20.043 0.824873C20.1349 0.862922 20.2183 0.91869 20.2886 0.988995C20.3589 1.0593 20.4147 1.14276 20.4528 1.23462C20.4908 1.32648 20.5104 1.42493 20.5104 1.52435C20.5104 1.62378 20.4908 1.72223 20.4528 1.81409C20.4147 1.90594 20.3589 1.98941 20.2886 2.05971L11.2148 11.1336C11.1445 11.204 11.0611 11.2599 10.9692 11.298C10.8773 11.3361 10.7789 11.3557 10.6794 11.3557C10.5799 11.3557 10.4815 11.3361 10.3896 11.298C10.2977 11.2599 10.2143 11.204 10.144 11.1336L1.07017 2.05971C0.999754 1.98947 0.943885 1.90603 0.905765 1.81416C0.867644 1.7223 0.848022 1.62381 0.848022 1.52435C0.848022 1.42489 0.867644 1.32641 0.905765 1.23454C0.943885 1.14268 0.999754 1.05923 1.07017 0.988995Z" fill="white" stroke="#283964"/>
</svg>
