<svg viewBox="0 0 475 477" fill="none" xmlns="http://www.w3.org/2000/svg"><circle cx="104.832" cy="93.145" r="39.092" fill="#DADADA"/><g filter="url(#filter0_d)"><path d="M142.959 92.18a39.089 39.089 0 00-24.133-36.116A39.09 39.09 0 0067.75 107.14a39.095 39.095 0 0036.116 24.132V92.18h39.093z" fill="#C36A88"/></g><circle cx="103.866" cy="92.18" r="24.613" fill="#fff"/><path fill-rule="evenodd" clip-rule="evenodd" d="M104.349 110.037v21.235h-2.895v-21.235h2.895zM111.106 92.663h31.852v2.895h-31.852v-2.895z" fill="#fff"/><circle cx="40.161" cy="206.078" r="39.092" fill="#DADADA"/><g filter="url(#filter1_d)"><path d="M55.279 169.482a39.102 39.102 0 00-22.506-2.93 39.085 39.085 0 00-31.66 29.738 39.092 39.092 0 001.516 22.645l36.567-13.822 16.083-35.631z" fill="#EF8F14"/></g><circle cx="39.196" cy="205.113" r="24.613" fill="#fff"/><path fill-rule="evenodd" clip-rule="evenodd" d="M23.84 214.389l-19.91 7.384-1.007-2.715 19.91-7.384 1.007 2.715zM42.266 198.735l12.92-29.115 2.647 1.174-12.92 29.115-2.647-1.174z" fill="#fff"/><circle cx="63.327" cy="347.002" r="39.092" fill="#DADADA"/><g filter="url(#filter2_d)"><path d="M78.445 310.407a39.094 39.094 0 00-42.847 7.136 39.091 39.091 0 00-9.803 42.316l36.567-13.822 16.083-35.63z" fill="#43BADC"/></g><circle cx="62.361" cy="346.037" r="24.613" fill="#fff"/><path fill-rule="evenodd" clip-rule="evenodd" d="M47.005 355.313l-19.91 7.385-1.007-2.715 19.91-7.385 1.007 2.715zM65.431 339.659l12.92-29.115 2.647 1.175-12.92 29.115-2.647-1.175z" fill="#fff"/><circle cx="169.502" cy="437.735" r="39.092" fill="#DADADA"/><g filter="url(#filter3_d)"><path d="M184.62 401.139a39.095 39.095 0 00-54.167 26.807 39.09 39.09 0 001.517 22.645l36.567-13.822 16.083-35.63z" fill="#F58A68"/></g><circle cx="168.537" cy="436.769" r="24.613" fill="#fff"/><path fill-rule="evenodd" clip-rule="evenodd" d="M153.181 446.045l-19.91 7.385-1.007-2.715 19.91-7.385 1.007 2.715zM171.607 430.392l12.92-29.115 2.647 1.174-12.92 29.115-2.647-1.174z" fill="#fff"/><circle cx="306.566" cy="437.907" r="39.092" transform="rotate(90 306.566 437.907)" fill="#DADADA"/><g filter="url(#filter4_d)"><path d="M335.174 410.266a39.1 39.1 0 00-27.643-11.449v39.092l27.643-27.643z" fill="#533887"/></g><circle cx="307.531" cy="436.942" r="24.613" transform="rotate(90 307.531 436.942)" fill="#fff"/><path fill-rule="evenodd" clip-rule="evenodd" d="M304.959 419.904l-.198-21.235 2.896-.026.197 21.234-2.895.027zM311.875 432.009l22.47-22.577 2.052 2.043-22.47 22.576-2.052-2.042z" fill="#fff"/><circle cx="238.034" cy="40.057" r="39.092" fill="#DADADA"/><g filter="url(#filter5_d)"><path d="M276.161 39.092A39.089 39.089 0 00237.069 0a39.09 39.09 0 00-39.092 39.092h78.184z" fill="#F6D466"/></g><circle cx="237.069" cy="39.092" r="24.613" fill="#fff"/><path fill-rule="evenodd" clip-rule="evenodd" d="M198.942 39.575h77.219v2.895h-77.219v-2.895z" fill="#fff"/><path stroke="#000" d="M297.78 170.203l-29.923 35.713M347.972 108.428l-29.922 35.713M233.226 79.149v41.506M233.226 141.89v41.505M329.321 228.29l-46.331 6.757M428.741 212.847l-46.332 6.756M321.297 293.875l-44.401-23.165M396.585 335.38l-44.401-23.165M78.361 210.892l26.061 3.861M150.753 223.44l26.062 3.861M132.727 120.337l22.201 27.027M169.406 169.564l22.2 27.027M86.758 320.973l27.992-13.513M143.695 292.987l35.714-18.339M179.166 398.477l13.513-38.609M201.366 335.737l13.514-38.609M277.593 360.819l14.435 37.66M253.462 298.079l14.435 37.66"/><circle cx="236.586" cy="243.24" r="56.206" fill="#F5F5F8" stroke="#fff" stroke-width="15"/><path d="M228.229 124.515h-3.038v-1.54h7.84v1.54h-3.038v8.372h-1.764v-8.372zm8.703 7.518h-.042c-.168.299-.439.546-.812.742-.373.187-.798.28-1.274.28-.271 0-.555-.037-.854-.112a2.567 2.567 0 01-.812-.336 2.243 2.243 0 01-.616-.644c-.159-.27-.238-.602-.238-.994 0-.504.14-.905.42-1.204a2.83 2.83 0 011.106-.686 6.019 6.019 0 011.484-.308 15.914 15.914 0 011.61-.084v-.168c0-.42-.154-.728-.462-.924-.299-.205-.658-.308-1.078-.308-.355 0-.695.075-1.022.224-.327.15-.597.332-.812.546l-.868-1.022c.383-.354.821-.62 1.316-.798a4.579 4.579 0 011.526-.266c.597 0 1.087.084 1.47.252.392.168.7.388.924.658.224.271.378.574.462.91.093.336.14.672.14 1.008v4.088h-1.568v-.854zm-.028-2.212h-.378c-.271 0-.555.014-.854.042-.299.019-.574.07-.826.154a1.638 1.638 0 00-.63.336c-.168.14-.252.336-.252.588 0 .159.033.294.098.406a.902.902 0 00.28.252c.112.066.238.112.378.14.14.028.28.042.42.042.579 0 1.017-.154 1.316-.462.299-.308.448-.728.448-1.26v-.238zm5.261-.504l-2.422-3.15h2.016l1.456 2.086 1.498-2.086h1.932l-2.408 3.15 2.744 3.57h-2.044l-1.75-2.45-1.764 2.45h-1.988l2.73-3.57zM287.391 149.759h1.764v8.344h4.214v1.568h-5.978v-9.912zm7.094 3.192h1.68v6.72h-1.68v-6.72zm-.238-2.282c0-.271.098-.504.294-.7.206-.205.462-.308.77-.308s.565.098.77.294a.904.904 0 01.322.714.946.946 0 01-.322.728 1.1 1.1 0 01-.77.28c-.308 0-.564-.098-.77-.294a1.002 1.002 0 01-.294-.714zm8.128 8.148h-.042c-.168.299-.438.546-.812.742-.373.187-.798.28-1.274.28-.27 0-.555-.037-.854-.112a2.567 2.567 0 01-.812-.336 2.27 2.27 0 01-.616-.644c-.158-.271-.238-.602-.238-.994 0-.504.14-.905.42-1.204.29-.299.658-.527 1.106-.686a5.973 5.973 0 011.484-.308 15.93 15.93 0 011.61-.084v-.168c0-.42-.154-.728-.462-.924-.298-.205-.658-.308-1.078-.308a2.44 2.44 0 00-1.022.224 2.752 2.752 0 00-.812.546l-.868-1.022a3.803 3.803 0 011.316-.798 4.579 4.579 0 011.526-.266c.598 0 1.088.084 1.47.252.392.168.7.387.924.658.224.271.378.574.462.91.094.336.14.672.14 1.008v4.088h-1.568v-.854zm-.028-2.212h-.378c-.27 0-.555.014-.854.042-.298.019-.574.07-.826.154a1.638 1.638 0 00-.63.336c-.168.14-.252.336-.252.588 0 .159.033.294.098.406a.902.902 0 00.28.252c.112.065.238.112.378.14.14.028.28.042.42.042.579 0 1.018-.154 1.316-.462.299-.308.448-.728.448-1.26v-.238zm5.262-7.518v4.718h.042a2.642 2.642 0 01.784-.686c.186-.103.401-.187.644-.252.242-.075.518-.112.826-.112.476 0 .914.093 1.316.28.401.177.746.425 1.036.742.289.317.513.691.672 1.12.158.429.238.891.238 1.386a4.1 4.1 0 01-.238 1.4c-.15.429-.369.807-.658 1.134-.28.317-.626.574-1.036.77-.402.187-.859.28-1.372.28-.476 0-.924-.103-1.344-.308a2.29 2.29 0 01-.966-.896h-.028v1.008h-1.596v-10.584h1.68zm3.85 7.196c0-.261-.042-.518-.126-.77a2.075 2.075 0 00-.35-.7 1.73 1.73 0 00-.602-.49 1.774 1.774 0 00-.854-.196c-.308 0-.584.065-.826.196a2.21 2.21 0 00-.63.504 2.33 2.33 0 00-.392.7 2.55 2.55 0 00-.126.784c0 .261.042.523.126.784.093.252.224.481.392.686.177.205.387.373.63.504.242.121.518.182.826.182a1.774 1.774 0 001.456-.7c.158-.205.275-.439.35-.7a2.55 2.55 0 00.126-.784zm3.356-3.332h1.68v6.72h-1.68v-6.72zm-.238-2.282c0-.271.098-.504.294-.7.206-.205.462-.308.77-.308s.565.098.77.294a.904.904 0 01.322.714.946.946 0 01-.322.728 1.1 1.1 0 01-.77.28c-.308 0-.564-.098-.77-.294a1.002 1.002 0 01-.294-.714zm3.984-1.582h1.68v10.584h-1.68v-10.584zm3.746 3.864h1.68v6.72h-1.68v-6.72zm-.238-2.282c0-.271.098-.504.294-.7.206-.205.462-.308.77-.308s.565.098.77.294a.904.904 0 01.322.714.946.946 0 01-.322.728 1.1 1.1 0 01-.77.28c-.308 0-.564-.098-.77-.294a1.002 1.002 0 01-.294-.714zm2.991 3.626v-1.344h1.176v-1.946h1.652v1.946h1.68v1.344h-1.68v3.122c0 .299.051.546.154.742.112.196.354.294.728.294.112 0 .233-.009.364-.028.13-.028.247-.065.35-.112l.056 1.316c-.15.056-.327.098-.532.126a3.332 3.332 0 01-.588.056c-.448 0-.812-.061-1.092-.182a1.802 1.802 0 01-.672-.518 2.12 2.12 0 01-.336-.756 4.854 4.854 0 01-.084-.924v-3.136h-1.176zm5.751-1.344h1.68v6.72h-1.68v-6.72zm-.238-2.282c0-.271.098-.504.294-.7.206-.205.462-.308.77-.308s.565.098.77.294a.904.904 0 01.322.714.946.946 0 01-.322.728 1.1 1.1 0 01-.77.28c-.308 0-.564-.098-.77-.294a1.002 1.002 0 01-.294-.714zm8.688 4.97c0-.215-.032-.42-.098-.616a1.325 1.325 0 00-.28-.518 1.314 1.314 0 00-.504-.35 1.619 1.619 0 00-.7-.14c-.504 0-.933.154-1.288.462a1.65 1.65 0 00-.574 1.162h3.444zm1.68.756v.224c0 .075-.004.149-.014.224h-5.11c.019.243.08.467.182.672.112.196.257.369.434.518.178.14.378.252.602.336.224.084.458.126.7.126.42 0 .775-.075 1.064-.224.29-.159.528-.373.714-.644l1.12.896c-.662.896-1.624 1.344-2.884 1.344a4.207 4.207 0 01-1.442-.238 3.584 3.584 0 01-1.148-.7 3.284 3.284 0 01-.756-1.092 3.936 3.936 0 01-.266-1.484 3.9 3.9 0 01.266-1.47c.187-.448.439-.826.756-1.134.318-.317.691-.56 1.12-.728.439-.177.91-.266 1.414-.266.467 0 .896.079 1.288.238.402.149.747.378 1.036.686.29.299.514.677.672 1.134.168.448.252.975.252 1.582zm5.31-1.652a1.875 1.875 0 00-.616-.504 1.697 1.697 0 00-.854-.224c-.271 0-.518.056-.742.168-.224.112-.336.299-.336.56 0 .261.121.448.364.56.252.103.616.21 1.092.322.252.056.504.131.756.224.261.093.494.219.7.378.214.149.387.341.518.574.13.224.196.499.196.826 0 .411-.08.761-.238 1.05a1.9 1.9 0 01-.616.686 2.444 2.444 0 01-.896.378 4.314 4.314 0 01-1.05.126 4.277 4.277 0 01-1.526-.28 3.283 3.283 0 01-1.232-.826l1.106-1.036a2.2 2.2 0 00.728.602c.298.159.63.238.994.238a1.62 1.62 0 00.714-.168.767.767 0 00.266-.252.695.695 0 00.098-.378c0-.28-.131-.481-.392-.602-.252-.121-.635-.243-1.148-.364a6.688 6.688 0 01-.742-.21 2.7 2.7 0 01-.63-.35 1.684 1.684 0 01-.448-.546c-.112-.215-.168-.481-.168-.798 0-.373.074-.695.224-.966.158-.271.364-.49.616-.658.252-.177.536-.308.854-.392.317-.084.644-.126.98-.126.485 0 .956.084 1.414.252.466.168.835.425 1.106.77l-1.092.966zM345.918 222.923a7.498 7.498 0 01-1.666.56c-.598.14-1.288.21-2.072.21-.803 0-1.536-.126-2.198-.378a5.184 5.184 0 01-1.708-1.078 5.075 5.075 0 01-1.12-1.652 5.598 5.598 0 01-.392-2.128c0-.794.135-1.508.406-2.142a4.9 4.9 0 011.134-1.638 5.091 5.091 0 011.708-1.036 6.053 6.053 0 012.128-.364c.793 0 1.516.116 2.17.35.662.224 1.194.522 1.596.896l-1.218 1.316c-.252-.28-.607-.518-1.064-.714a3.627 3.627 0 00-1.47-.294c-.523 0-.999.093-1.428.28-.42.186-.78.443-1.078.77a3.562 3.562 0 00-.7 1.148 4.155 4.155 0 00-.238 1.428c0 .532.079 1.022.238 1.47.168.438.401.821.7 1.148.308.326.676.583 1.106.77.438.177.933.266 1.484.266.756 0 1.414-.117 1.974-.35v-2.52h-2.086v-1.456h3.794v5.138zm1.672-2.87c0-.532.093-1.013.28-1.442.196-.439.457-.812.784-1.12a3.419 3.419 0 011.162-.714 4.033 4.033 0 011.428-.252c.504 0 .98.084 1.428.252.448.168.835.406 1.162.714.326.308.583.681.77 1.12.196.429.294.91.294 1.442a3.53 3.53 0 01-.294 1.456 3.467 3.467 0 01-.77 1.134c-.327.308-.714.55-1.162.728a3.851 3.851 0 01-1.428.266c-.504 0-.98-.089-1.428-.266a3.614 3.614 0 01-1.162-.728 3.632 3.632 0 01-.784-1.134 3.677 3.677 0 01-.28-1.456zm1.708 0c0 .261.037.522.112.784.084.261.205.494.364.7.158.205.359.373.602.504.242.13.532.196.868.196.336 0 .625-.066.868-.196.242-.131.443-.299.602-.504.158-.206.275-.439.35-.7.084-.262.126-.523.126-.784 0-.262-.042-.518-.126-.77a2.066 2.066 0 00-.35-.7 1.72 1.72 0 00-.602-.49 1.803 1.803 0 00-.868-.196 1.8 1.8 0 00-.868.196 1.702 1.702 0 00-.602.49c-.159.205-.28.438-.364.7a2.682 2.682 0 00-.112.77zm11.401 2.534h-.042c-.168.298-.439.546-.812.742-.374.186-.798.28-1.274.28a3.55 3.55 0 01-.854-.112 2.605 2.605 0 01-.812-.336 2.256 2.256 0 01-.616-.644c-.159-.271-.238-.602-.238-.994 0-.504.14-.906.42-1.204a2.808 2.808 0 011.106-.686 5.92 5.92 0 011.484-.308 15.9 15.9 0 011.61-.084v-.168c0-.42-.154-.728-.462-.924-.299-.206-.658-.308-1.078-.308-.355 0-.696.074-1.022.224a2.726 2.726 0 00-.812.546l-.868-1.022a3.785 3.785 0 011.316-.798 4.55 4.55 0 011.526-.266c.597 0 1.087.084 1.47.252.392.168.7.387.924.658.224.27.378.574.462.91.093.336.14.672.14 1.008v4.088h-1.568v-.854zm-.028-2.212h-.378c-.271 0-.556.014-.854.042-.299.018-.574.07-.826.154a1.612 1.612 0 00-.63.336c-.168.14-.252.336-.252.588 0 .158.032.294.098.406a.916.916 0 00.28.252c.112.065.238.112.378.14.14.028.28.042.42.042.578 0 1.017-.154 1.316-.462.298-.308.448-.728.448-1.26v-.238zm3.581-7.518h1.68v10.584h-1.68v-10.584zm7.4 5.656a1.865 1.865 0 00-.616-.504 1.684 1.684 0 00-.854-.224c-.271 0-.518.056-.742.168-.224.112-.336.298-.336.56 0 .261.121.448.364.56.252.102.616.21 1.092.322.252.056.504.13.756.224.261.093.495.219.7.378.215.149.387.34.518.574.131.224.196.499.196.826 0 .41-.079.76-.238 1.05-.149.28-.355.508-.616.686a2.444 2.444 0 01-.896.378 4.314 4.314 0 01-1.05.126 4.303 4.303 0 01-1.526-.28 3.302 3.302 0 01-1.232-.826l1.106-1.036c.187.242.429.443.728.602.299.158.63.238.994.238a1.614 1.614 0 00.714-.168.776.776 0 00.266-.252.695.695 0 00.098-.378c0-.28-.131-.481-.392-.602-.252-.122-.635-.243-1.148-.364a6.75 6.75 0 01-.742-.21 2.779 2.779 0 01-.63-.35 1.705 1.705 0 01-.448-.546c-.112-.215-.168-.481-.168-.798 0-.374.075-.696.224-.966.159-.271.364-.49.616-.658.252-.178.537-.308.854-.392.317-.084.644-.126.98-.126.485 0 .957.084 1.414.252.467.168.835.424 1.106.77l-1.092.966zM336.323 301.997a7.38 7.38 0 01-1.666.56c-.597.14-1.288.21-2.072.21-.802 0-1.535-.126-2.198-.378a5.162 5.162 0 01-1.708-1.078 5.069 5.069 0 01-1.12-1.652 5.614 5.614 0 01-.392-2.128c0-.793.136-1.507.406-2.142a4.9 4.9 0 011.134-1.638 5.127 5.127 0 011.708-1.036 6.084 6.084 0 012.128-.364c.794 0 1.517.117 2.17.35.663.224 1.195.523 1.596.896l-1.218 1.316c-.252-.28-.606-.518-1.064-.714a3.627 3.627 0 00-1.47-.294 3.56 3.56 0 00-1.428.28c-.42.187-.779.444-1.078.77-.298.327-.532.71-.7 1.148a4.187 4.187 0 00-.238 1.428c0 .532.08 1.022.238 1.47.168.439.402.822.7 1.148a3.31 3.31 0 001.106.77 3.92 3.92 0 001.484.266c.756 0 1.414-.116 1.974-.35v-2.52h-2.086v-1.456h3.794v5.138zm1.673-2.87c0-.532.093-1.012.28-1.442.196-.438.457-.812.784-1.12a3.419 3.419 0 011.162-.714 4.033 4.033 0 011.428-.252c.504 0 .98.084 1.428.252.448.168.835.406 1.162.714.326.308.583.682.77 1.12.196.43.294.91.294 1.442 0 .532-.098 1.018-.294 1.456a3.446 3.446 0 01-.77 1.134 3.608 3.608 0 01-1.162.728 3.83 3.83 0 01-1.428.266 3.83 3.83 0 01-1.428-.266 3.597 3.597 0 01-1.162-.728 3.61 3.61 0 01-.784-1.134 3.673 3.673 0 01-.28-1.456zm1.708 0c0 .262.037.523.112.784.084.262.205.495.364.7.158.206.359.374.602.504a1.8 1.8 0 00.868.196c.336 0 .625-.065.868-.196.242-.13.443-.298.602-.504.158-.205.275-.438.35-.7.084-.261.126-.522.126-.784 0-.261-.042-.518-.126-.77a2.084 2.084 0 00-.35-.7 1.742 1.742 0 00-.602-.49 1.815 1.815 0 00-.868-.196c-.336 0-.626.066-.868.196a1.723 1.723 0 00-.602.49c-.159.206-.28.439-.364.7a2.687 2.687 0 00-.112.77zm7.257-7.196h1.68v10.584h-1.68v-10.584zm10.55 10.584h-1.596v-1.008h-.028a2.28 2.28 0 01-.98.896 2.925 2.925 0 01-1.33.308c-.514 0-.976-.093-1.386-.28a3.39 3.39 0 01-1.036-.77c-.28-.326-.5-.704-.658-1.134a4.293 4.293 0 01-.224-1.4c0-.494.079-.956.238-1.386a3.37 3.37 0 01.672-1.12 3.06 3.06 0 011.036-.742 3.09 3.09 0 011.316-.28c.308 0 .583.038.826.112a2.687 2.687 0 011.106.588c.13.122.238.238.322.35h.042v-4.718h1.68v10.584zm-5.53-3.388c0 .262.037.523.112.784.084.262.205.495.364.7a1.768 1.768 0 001.456.7c.308 0 .583-.06.826-.182.242-.13.448-.298.616-.504.177-.205.308-.434.392-.686.093-.261.14-.522.14-.784a2.33 2.33 0 00-.14-.784 2.007 2.007 0 00-.392-.7 2.047 2.047 0 00-.616-.504 1.723 1.723 0 00-.826-.196 1.78 1.78 0 00-.854.196 1.723 1.723 0 00-.602.49c-.159.206-.28.439-.364.7a2.687 2.687 0 00-.112.77zM266.675 341.069h3.234c.569 0 1.082.051 1.54.154.457.102.849.27 1.176.504.326.233.578.532.756.896.177.364.266.802.266 1.316 0 .55-.103 1.012-.308 1.386a2.556 2.556 0 01-.84.91 3.683 3.683 0 01-1.218.49 6.943 6.943 0 01-1.484.154h-1.358v4.102h-1.764v-9.912zm2.996 4.326c.289 0 .564-.019.826-.056.261-.047.494-.122.7-.224.205-.112.368-.262.49-.448.121-.187.182-.43.182-.728 0-.29-.061-.523-.182-.7a1.226 1.226 0 00-.49-.434 1.9 1.9 0 00-.686-.196 5.261 5.261 0 00-.784-.056h-1.288v2.842h1.232zm5.549-4.326h3.234c.569 0 1.082.051 1.54.154.457.102.849.27 1.176.504.326.233.578.532.756.896.177.364.266.802.266 1.316 0 .55-.103 1.012-.308 1.386a2.556 2.556 0 01-.84.91 3.683 3.683 0 01-1.218.49 6.943 6.943 0 01-1.484.154h-1.358v4.102h-1.764v-9.912zm2.996 4.326c.289 0 .564-.019.826-.056.261-.047.494-.122.7-.224.205-.112.368-.262.49-.448.121-.187.182-.43.182-.728 0-.29-.061-.523-.182-.7a1.226 1.226 0 00-.49-.434 1.9 1.9 0 00-.686-.196 5.261 5.261 0 00-.784-.056h-1.288v2.842h1.232zm5.549-4.326h6.398v1.54h-4.634v2.716h4.368v1.484h-4.368v4.172h-1.764v-9.912zM159.983 342.069h3.444c.466 0 .919.051 1.358.154.438.093.826.252 1.162.476.345.224.62.518.826.882.205.364.308.807.308 1.33 0 .718-.206 1.306-.616 1.764-.402.448-.952.751-1.652.91l2.646 4.396h-2.128l-2.296-4.2h-1.288v4.2h-1.764v-9.912zm3.206 4.27c.252 0 .504-.019.756-.056.252-.038.476-.108.672-.21.205-.103.373-.248.504-.434.13-.196.196-.444.196-.742 0-.271-.061-.49-.182-.658a1.327 1.327 0 00-.462-.42 1.93 1.93 0 00-.644-.21 4.267 4.267 0 00-.686-.056h-1.596v2.786h1.442zm10.082 1.61c0-.215-.032-.42-.098-.616a1.304 1.304 0 00-.784-.868 1.604 1.604 0 00-.7-.14c-.504 0-.933.154-1.288.462a1.647 1.647 0 00-.574 1.162h3.444zm1.68.756v.224c0 .074-.004.149-.014.224h-5.11c.019.242.08.466.182.672.112.196.257.368.434.518.178.14.378.252.602.336.224.084.458.126.7.126.42 0 .775-.075 1.064-.224.29-.159.528-.374.714-.644l1.12.896c-.662.896-1.624 1.344-2.884 1.344-.522 0-1.003-.08-1.442-.238a3.601 3.601 0 01-1.148-.7 3.284 3.284 0 01-.756-1.092 3.94 3.94 0 01-.266-1.484c0-.542.089-1.032.266-1.47.187-.448.439-.826.756-1.134.318-.318.691-.56 1.12-.728.439-.178.91-.266 1.414-.266.467 0 .896.079 1.288.238.402.149.747.378 1.036.686a3 3 0 01.672 1.134c.168.448.252.975.252 1.582zm5.717 2.422h-.042c-.168.298-.438.546-.812.742-.373.186-.798.28-1.274.28-.27 0-.555-.038-.854-.112a2.615 2.615 0 01-.812-.336 2.27 2.27 0 01-.616-.644c-.158-.271-.238-.602-.238-.994 0-.504.14-.906.42-1.204.29-.299.658-.528 1.106-.686a5.929 5.929 0 011.484-.308 15.93 15.93 0 011.61-.084v-.168c0-.42-.154-.728-.462-.924-.298-.206-.658-.308-1.078-.308-.354 0-.695.074-1.022.224a2.752 2.752 0 00-.812.546l-.868-1.022a3.803 3.803 0 011.316-.798 4.554 4.554 0 011.526-.266c.598 0 1.088.084 1.47.252.392.168.7.387.924.658.224.27.378.574.462.91.094.336.14.672.14 1.008v4.088h-1.568v-.854zm-.028-2.212h-.378c-.27 0-.555.014-.854.042a3.22 3.22 0 00-.826.154 1.612 1.612 0 00-.63.336c-.168.14-.252.336-.252.588 0 .158.033.294.098.406a.928.928 0 00.28.252c.112.065.238.112.378.14.14.028.28.042.42.042.579 0 1.018-.154 1.316-.462.299-.308.448-.728.448-1.26v-.238zm3.582-7.518h1.68v10.584h-1.68v-10.584zm7.302.672h6.566v1.54h-4.802v2.52h4.55v1.484h-4.55v2.8h5.054v1.568h-6.818v-9.912zm12.143 4.984a1.875 1.875 0 00-.616-.504 1.687 1.687 0 00-.854-.224c-.271 0-.518.056-.742.168-.224.112-.336.298-.336.56 0 .261.121.448.364.56.252.102.616.21 1.092.322.252.056.504.13.756.224.261.093.494.219.7.378.214.149.387.34.518.574.13.224.196.499.196.826 0 .41-.08.76-.238 1.05-.15.28-.355.508-.616.686a2.444 2.444 0 01-.896.378 4.314 4.314 0 01-1.05.126 4.3 4.3 0 01-1.526-.28 3.294 3.294 0 01-1.232-.826l1.106-1.036c.186.242.429.443.728.602.298.158.63.238.994.238a1.62 1.62 0 00.714-.168c.112-.066.2-.15.266-.252a.695.695 0 00.098-.378c0-.28-.131-.481-.392-.602-.252-.122-.635-.243-1.148-.364a6.688 6.688 0 01-.742-.21 2.736 2.736 0 01-.63-.35 1.705 1.705 0 01-.448-.546c-.112-.215-.168-.481-.168-.798 0-.374.074-.696.224-.966.158-.271.364-.49.616-.658.252-.178.536-.308.854-.392.317-.084.644-.126.98-.126.485 0 .956.084 1.414.252.466.168.835.424 1.106.77l-1.092.966zm1.572-.448v-1.344h1.176v-1.946h1.652v1.946h1.68v1.344h-1.68v3.122c0 .298.052.546.154.742.112.196.355.294.728.294.112 0 .234-.01.364-.028.131-.028.248-.066.35-.112l.056 1.316a2.464 2.464 0 01-.532.126 3.315 3.315 0 01-.588.056c-.448 0-.812-.061-1.092-.182a1.812 1.812 0 01-.672-.518 2.156 2.156 0 01-.336-.756 4.87 4.87 0 01-.084-.924v-3.136h-1.176zm9.896 4.522h-.042c-.168.298-.439.546-.812.742-.373.186-.798.28-1.274.28-.271 0-.555-.038-.854-.112a2.615 2.615 0 01-.812-.336 2.256 2.256 0 01-.616-.644c-.159-.271-.238-.602-.238-.994 0-.504.14-.906.42-1.204a2.808 2.808 0 011.106-.686 5.929 5.929 0 011.484-.308 15.914 15.914 0 011.61-.084v-.168c0-.42-.154-.728-.462-.924-.299-.206-.658-.308-1.078-.308-.355 0-.695.074-1.022.224a2.739 2.739 0 00-.812.546l-.868-1.022a3.794 3.794 0 011.316-.798 4.554 4.554 0 011.526-.266c.597 0 1.087.084 1.47.252.392.168.7.387.924.658.224.27.378.574.462.91.093.336.14.672.14 1.008v4.088h-1.568v-.854zm-.028-2.212h-.378c-.271 0-.555.014-.854.042-.299.018-.574.07-.826.154a1.612 1.612 0 00-.63.336c-.168.14-.252.336-.252.588 0 .158.033.294.098.406a.928.928 0 00.28.252c.112.065.238.112.378.14.14.028.28.042.42.042.579 0 1.017-.154 1.316-.462.299-.308.448-.728.448-1.26v-.238zm2.451-2.31v-1.344h1.176v-1.946h1.652v1.946h1.68v1.344h-1.68v3.122c0 .298.051.546.154.742.112.196.354.294.728.294.112 0 .233-.01.364-.028.13-.028.247-.066.35-.112l.056 1.316c-.15.056-.327.098-.532.126a3.332 3.332 0 01-.588.056c-.448 0-.812-.061-1.092-.182a1.812 1.812 0 01-.672-.518 2.12 2.12 0 01-.336-.756 4.87 4.87 0 01-.084-.924v-3.136h-1.176zm10.455 1.344c0-.215-.032-.42-.098-.616a1.304 1.304 0 00-.784-.868 1.604 1.604 0 00-.7-.14c-.504 0-.933.154-1.288.462a1.647 1.647 0 00-.574 1.162h3.444zm1.68.756v.224c0 .074-.004.149-.014.224h-5.11c.019.242.08.466.182.672.112.196.257.368.434.518.178.14.378.252.602.336.224.084.458.126.7.126.42 0 .775-.075 1.064-.224.29-.159.528-.374.714-.644l1.12.896c-.662.896-1.624 1.344-2.884 1.344-.522 0-1.003-.08-1.442-.238a3.601 3.601 0 01-1.148-.7 3.284 3.284 0 01-.756-1.092 3.94 3.94 0 01-.266-1.484c0-.542.089-1.032.266-1.47.187-.448.439-.826.756-1.134.318-.318.691-.56 1.12-.728.439-.178.91-.266 1.414-.266.467 0 .896.079 1.288.238.402.149.747.378 1.036.686a3 3 0 01.672 1.134c.168.448.252.975.252 1.582zM117.973 212.775c-.187-.243-.453-.444-.798-.602a2.265 2.265 0 00-1.022-.252c-.206 0-.411.028-.616.084a1.646 1.646 0 00-.56.238 1.277 1.277 0 00-.42.42 1.156 1.156 0 00-.154.616c0 .224.046.415.14.574.093.158.219.294.378.406.168.112.368.21.602.294.233.084.49.168.77.252.317.102.644.219.98.35.345.13.658.303.938.518.289.214.522.485.7.812.186.326.28.732.28 1.218 0 .532-.098.998-.294 1.4a2.907 2.907 0 01-.784.98c-.327.261-.71.457-1.148.588-.439.13-.901.196-1.386.196a5.302 5.302 0 01-1.89-.35 3.717 3.717 0 01-1.512-1.064l1.26-1.176c.242.336.564.602.966.798.41.196.812.294 1.204.294.205 0 .415-.024.63-.07.214-.056.406-.145.574-.266a1.39 1.39 0 00.42-.448c.112-.187.168-.416.168-.686 0-.262-.061-.476-.182-.644a1.516 1.516 0 00-.49-.448 3.276 3.276 0 00-.728-.336l-.882-.294a8.968 8.968 0 01-.896-.336 3.092 3.092 0 01-.812-.518 2.57 2.57 0 01-.574-.784c-.15-.318-.224-.71-.224-1.176 0-.504.102-.938.308-1.302.214-.364.49-.663.826-.896.345-.243.732-.42 1.162-.532a4.937 4.937 0 011.33-.182c.504 0 1.012.088 1.526.266.522.177.975.443 1.358.798l-1.148 1.26zm1.853 2.464v-1.344h1.176v-1.946h1.652v1.946h1.68v1.344h-1.68v3.122c0 .298.051.546.154.742.112.196.355.294.728.294.112 0 .233-.01.364-.028.131-.028.247-.066.35-.112l.056 1.316a2.478 2.478 0 01-.532.126 3.315 3.315 0 01-.588.056c-.448 0-.812-.061-1.092-.182a1.812 1.812 0 01-.672-.518 2.12 2.12 0 01-.336-.756 4.87 4.87 0 01-.084-.924v-3.136h-1.176zm5.332 1.988c0-.532.093-1.013.28-1.442.196-.439.457-.812.784-1.12a3.419 3.419 0 011.162-.714 4.033 4.033 0 011.428-.252c.504 0 .98.084 1.428.252.448.168.835.406 1.162.714.326.308.583.681.77 1.12.196.429.294.91.294 1.442a3.53 3.53 0 01-.294 1.456 3.467 3.467 0 01-.77 1.134c-.327.308-.714.55-1.162.728a3.851 3.851 0 01-1.428.266c-.504 0-.98-.089-1.428-.266a3.614 3.614 0 01-1.162-.728 3.632 3.632 0 01-.784-1.134 3.677 3.677 0 01-.28-1.456zm1.708 0c0 .261.037.522.112.784.084.261.205.494.364.7.158.205.359.373.602.504.242.13.532.196.868.196.336 0 .625-.066.868-.196.242-.131.443-.299.602-.504.158-.206.275-.439.35-.7.084-.262.126-.523.126-.784 0-.262-.042-.518-.126-.77a2.066 2.066 0 00-.35-.7 1.72 1.72 0 00-.602-.49 1.803 1.803 0 00-.868-.196 1.8 1.8 0 00-.868.196 1.702 1.702 0 00-.602.49c-.159.205-.28.438-.364.7a2.682 2.682 0 00-.112.77zm11.821-1.47a1.43 1.43 0 00-.588-.462 1.766 1.766 0 00-.798-.196 1.63 1.63 0 00-.812.196c-.234.121-.43.284-.588.49-.15.205-.262.438-.336.7a2.682 2.682 0 00-.112.77c0 .261.037.522.112.784.084.252.205.48.364.686.158.205.354.373.588.504.242.121.522.182.84.182.261 0 .522-.052.784-.154a1.5 1.5 0 00.63-.448l1.05 1.064c-.28.298-.64.532-1.078.7-.43.158-.896.238-1.4.238a4.22 4.22 0 01-1.414-.238 3.427 3.427 0 01-1.162-.7 3.459 3.459 0 01-.784-1.12c-.187-.439-.28-.938-.28-1.498 0-.542.093-1.032.28-1.47.196-.439.457-.812.784-1.12a3.475 3.475 0 011.134-.714 3.877 3.877 0 011.4-.252c.494 0 .97.093 1.428.28.466.186.835.443 1.106.77l-1.148 1.008zm2.272-5.726h1.68v6.692h.042l2.548-2.828h2.156l-2.912 3.038 3.094 3.682h-2.226l-2.66-3.444h-.042v3.444h-1.68v-10.584zm11.173 5.656a1.865 1.865 0 00-.616-.504 1.684 1.684 0 00-.854-.224c-.271 0-.518.056-.742.168-.224.112-.336.298-.336.56 0 .261.121.448.364.56.252.102.616.21 1.092.322.252.056.504.13.756.224.261.093.495.219.7.378.215.149.387.34.518.574.131.224.196.499.196.826 0 .41-.079.76-.238 1.05-.149.28-.355.508-.616.686a2.444 2.444 0 01-.896.378 4.314 4.314 0 01-1.05.126 4.303 4.303 0 01-1.526-.28 3.302 3.302 0 01-1.232-.826l1.106-1.036c.187.242.429.443.728.602.299.158.63.238.994.238a1.614 1.614 0 00.714-.168.776.776 0 00.266-.252.695.695 0 00.098-.378c0-.28-.131-.481-.392-.602-.252-.122-.635-.243-1.148-.364a6.75 6.75 0 01-.742-.21 2.779 2.779 0 01-.63-.35 1.705 1.705 0 01-.448-.546c-.112-.215-.168-.481-.168-.798 0-.374.075-.696.224-.966.159-.271.364-.49.616-.658.252-.178.537-.308.854-.392.317-.084.644-.126.98-.126.485 0 .957.084 1.414.252.467.168.835.424 1.106.77l-1.092.966zM120.135 293.912h3.152l2.944 8.048h.048l2.912-8.048h3.168v11.328h-2v-9.104h-.032l-3.44 9.104h-1.408l-3.392-9.104h-.032v9.104h-1.92v-11.328zm14.718 0h7.312v1.76h-5.296v3.104h4.992v1.696h-4.992v4.768h-2.016v-11.328zM159.812 148.483h1.526l4.27 9.912h-2.016l-.924-2.268h-4.298l-.896 2.268H155.5l4.312-9.912zm2.24 6.132l-1.526-4.032-1.554 4.032h3.08zm4.537-6.132h1.764v9.912h-1.764v-9.912zm3.951 0h6.398v1.54h-4.634v2.716h4.368v1.484h-4.368v4.172h-1.764v-9.912zM212.56 221.214h7.312v1.76h-5.296v3.104h4.992v1.696h-4.992v4.768h-2.016v-11.328zm13.079 10.352h-.048c-.192.342-.502.624-.928.848-.427.214-.912.32-1.456.32-.31 0-.635-.042-.976-.128a2.914 2.914 0 01-.928-.384 2.566 2.566 0 01-.704-.736c-.182-.309-.272-.688-.272-1.136 0-.576.16-1.034.48-1.376.33-.341.752-.602 1.264-.784a6.865 6.865 0 011.696-.352 18.173 18.173 0 011.84-.096v-.192c0-.48-.176-.832-.528-1.056-.342-.234-.752-.352-1.232-.352-.406 0-.795.086-1.168.256a3.144 3.144 0 00-.928.624l-.992-1.168a4.349 4.349 0 011.504-.912 5.237 5.237 0 011.744-.304c.682 0 1.242.096 1.68.288.448.192.8.443 1.056.752.256.31.432.656.528 1.04.106.384.16.768.16 1.152v4.672h-1.792v-.976zm-.032-2.528h-.432c-.31 0-.635.016-.976.048-.342.022-.656.08-.944.176a1.88 1.88 0 00-.72.384c-.192.16-.288.384-.288.672a.9.9 0 00.112.464c.085.118.192.214.32.288.128.075.272.128.432.16.16.032.32.048.48.048.661 0 1.162-.176 1.504-.528.341-.352.512-.832.512-1.44v-.272zm13.229-4.4c.501 0 .928.091 1.28.272.362.171.656.4.88.688.234.288.405.619.512.992.106.374.16.758.16 1.152v4.8h-1.92v-4.256c0-.224-.016-.458-.048-.704a1.838 1.838 0 00-.208-.656 1.343 1.343 0 00-.448-.496c-.182-.128-.427-.192-.736-.192-.299 0-.555.064-.768.192a1.67 1.67 0 00-.528.496c-.139.203-.24.432-.304.688a2.911 2.911 0 00-.096.736v4.192h-1.92v-4.64c0-.48-.118-.874-.352-1.184-.224-.32-.582-.48-1.072-.48-.288 0-.539.064-.752.192-.214.118-.39.272-.528.464a2.41 2.41 0 00-.304.672 2.97 2.97 0 00-.096.752v4.224h-1.92v-7.68h1.824v1.232h.032c.085-.192.197-.373.336-.544.149-.17.32-.325.512-.464.202-.138.432-.245.688-.32.256-.085.538-.128.848-.128.597 0 1.093.134 1.488.4.394.267.698.619.912 1.056a2.689 2.689 0 011.024-1.072c.426-.256.928-.384 1.504-.384zm5.098.224h1.92v7.68h-1.92v-7.68zm-.272-2.608c0-.309.112-.576.336-.8.235-.234.528-.352.88-.352s.645.112.88.336c.245.214.368.486.368.816 0 .331-.123.608-.368.832-.235.214-.528.32-.88.32s-.645-.112-.88-.336a1.144 1.144 0 01-.336-.816zm4.553-1.808h1.92v12.096h-1.92v-12.096zm3.097 4.416h2.128l2.144 5.584h.032l1.904-5.584h2l-3.632 9.328a6.184 6.184 0 01-.448.928 2.43 2.43 0 01-.576.688 2.22 2.22 0 01-.8.432c-.298.096-.661.144-1.088.144-.16 0-.325-.01-.496-.032a2.734 2.734 0 01-.496-.08l.16-1.664c.128.043.251.07.368.08.128.022.246.032.352.032.203 0 .374-.026.512-.08a.76.76 0 00.352-.224c.096-.096.182-.218.256-.368a8.43 8.43 0 00.24-.528l.384-.976-3.296-7.68zm-37.647 25.984c0-.906.149-1.722.448-2.448a5.525 5.525 0 011.264-1.872 5.71 5.71 0 011.92-1.184 6.939 6.939 0 012.432-.416 6.99 6.99 0 012.448.416 5.674 5.674 0 011.936 1.184 5.239 5.239 0 011.264 1.872c.309.726.464 1.542.464 2.448 0 .886-.155 1.696-.464 2.432a5.592 5.592 0 01-1.264 1.888 5.929 5.929 0 01-1.936 1.232 6.75 6.75 0 01-2.448.432 6.701 6.701 0 01-2.432-.432 5.973 5.973 0 01-1.92-1.232 5.917 5.917 0 01-1.264-1.888c-.299-.736-.448-1.546-.448-2.432zm2.192 0c0 .608.091 1.168.272 1.68.192.502.459.939.8 1.312.352.374.763.667 1.232.88.48.203 1.008.304 1.584.304.576 0 1.104-.101 1.584-.304.48-.213.891-.506 1.232-.88.352-.373.619-.81.8-1.312a4.749 4.749 0 00.288-1.68 4.53 4.53 0 00-.288-1.632 3.883 3.883 0 00-.784-1.312 3.674 3.674 0 00-1.232-.88 3.901 3.901 0 00-1.6-.32c-.587 0-1.12.107-1.6.32a3.722 3.722 0 00-1.216.88 4.107 4.107 0 00-.8 1.312 4.777 4.777 0 00-.272 1.632zm12.138-.448h-1.456v-1.536h1.456v-1.136c0-.458.048-.896.144-1.312.107-.426.277-.8.512-1.12.245-.32.565-.57.96-.752.395-.192.891-.288 1.488-.288.213 0 .389.011.528.032.149.011.299.038.448.08l-.128 1.632a3.014 3.014 0 00-.352-.08 2.176 2.176 0 00-.384-.032c-.277 0-.501.054-.672.16a1.154 1.154 0 00-.4.416 1.93 1.93 0 00-.176.56c-.032.203-.048.4-.048.592v1.248h1.776v1.536h-1.776v6.144h-1.92v-6.144zm9.948-1.536h1.92v7.68h-1.92v-7.68zm-.272-2.608c0-.309.112-.576.336-.8.234-.234.528-.352.88-.352s.645.112.88.336c.245.214.368.486.368.816 0 .331-.123.608-.368.832-.235.214-.528.32-.88.32s-.646-.112-.88-.336a1.144 1.144 0 01-.336-.816zm-4.832 4.144h-1.456v-1.536h1.456v-1.136c0-.458.048-.896.144-1.312.106-.426.277-.8.512-1.12.245-.32.565-.57.96-.752.394-.192.89-.288 1.488-.288.213 0 .389.011.528.032.149.011.298.038.448.08l-.128 1.632a3.014 3.014 0 00-.352-.08 2.193 2.193 0 00-.384-.032c-.278 0-.502.054-.672.16a1.154 1.154 0 00-.4.416 1.9 1.9 0 00-.176.56c-.032.203-.048.4-.048.592v1.248h1.776v1.536h-1.776v6.144h-1.92v-6.144zm14.428.592c-.149-.213-.373-.389-.672-.528a2.025 2.025 0 00-.912-.224c-.352 0-.661.075-.928.224a2.016 2.016 0 00-.672.56 2.524 2.524 0 00-.384.8 3.097 3.097 0 00-.128.88c0 .299.043.598.128.896.096.288.235.55.416.784.181.235.405.427.672.576.277.139.597.208.96.208.299 0 .597-.058.896-.176a1.7 1.7 0 00.72-.512l1.2 1.216c-.32.342-.731.608-1.232.8a4.567 4.567 0 01-1.6.272 4.79 4.79 0 01-1.616-.272 3.912 3.912 0 01-1.328-.8 3.948 3.948 0 01-.896-1.28c-.213-.501-.32-1.072-.32-1.712 0-.618.107-1.178.32-1.68a3.96 3.96 0 01.896-1.28 3.98 3.98 0 011.296-.816 4.435 4.435 0 011.6-.288c.565 0 1.109.107 1.632.32.533.214.955.507 1.264.88l-1.312 1.152zm7.973.944c0-.245-.038-.48-.112-.704a1.529 1.529 0 00-.32-.592 1.527 1.527 0 00-.576-.4 1.856 1.856 0 00-.8-.16c-.576 0-1.067.176-1.472.528a1.877 1.877 0 00-.656 1.328h3.936zm1.92.864v.256c0 .086-.006.171-.016.256h-5.84c.021.278.09.534.208.768.128.224.293.422.496.592.202.16.432.288.688.384.256.096.522.144.8.144.48 0 .885-.085 1.216-.256.33-.181.602-.426.816-.736l1.28 1.024c-.758 1.024-1.856 1.536-3.296 1.536-.598 0-1.147-.09-1.648-.272a4.067 4.067 0 01-1.312-.8 3.718 3.718 0 01-.864-1.248c-.203-.501-.304-1.066-.304-1.696 0-.618.101-1.178.304-1.68.213-.512.501-.944.864-1.296a3.69 3.69 0 011.28-.832 4.282 4.282 0 011.616-.304c.533 0 1.024.091 1.472.272.458.171.853.432 1.184.784.33.342.586.774.768 1.296.192.512.288 1.115.288 1.808z" fill="#191C1F"/><circle cx="370.271" cy="89.284" r="39.092" transform="rotate(-180 370.271 89.284)" fill="#DADADA"/><g filter="url(#filter6_d)"><path d="M332.145 90.25a39.089 39.089 0 0024.132 36.116 39.092 39.092 0 1014.96-75.209V90.25h-39.092z" fill="#5F6F89"/></g><circle cx="371.237" cy="90.25" r="24.613" transform="rotate(-180 371.237 90.25)" fill="#fff"/><path fill-rule="evenodd" clip-rule="evenodd" d="M370.754 72.393V51.158h2.896v21.235h-2.896zM363.998 89.767h-31.853v-2.896h31.853v2.896z" fill="#fff"/><circle cx="435.908" cy="206.078" r="39.092" fill="#DADADA"/><g filter="url(#filter7_d)"><path d="M474.034 205.113a39.086 39.086 0 00-28.456-37.618 39.094 39.094 0 00-16.717-.998l6.081 38.616h39.092z" fill="#84AC31"/></g><circle cx="434.942" cy="205.113" r="24.613" fill="#fff"/><path fill-rule="evenodd" clip-rule="evenodd" d="M428.669 166.986l2.895 20.27-2.866.409-2.896-20.27 2.867-.409zM442.182 205.595h31.852v2.896h-31.852v-2.896z" fill="#fff"/><circle cx="409.846" cy="347.002" r="39.092" fill="#DADADA"/><g filter="url(#filter8_d)"><path d="M447.428 356.803a39.092 39.092 0 00-75.161-21.532l37.58 10.766 37.581 10.766z" fill="#E7AB3D"/></g><circle cx="408.881" cy="346.037" r="24.613" fill="#fff"/><path fill-rule="evenodd" clip-rule="evenodd" d="M391.555 342.045l-20.801-4.272.582-2.836 20.802 4.271-.583 2.837zM416.718 347.152l30.135 10.318-.938 2.74-30.135-10.319.938-2.739z" fill="#fff"/><defs><filter id="filter0_d" x="64.774" y="53.088" width="78.184" height="78.184" filterUnits="userSpaceOnUse" color-interpolation-filters="sRGB"><feFlood flood-opacity="0" result="BackgroundImageFix"/><feColorMatrix in="SourceAlpha" values="0 0 0 0 0 0 0 0 0 0 0 0 0 0 0 0 0 0 127 0"/><feOffset/><feColorMatrix values="0 0 0 0 1 0 0 0 0 1 0 0 0 0 1 0 0 0 1 0"/><feBlend in2="BackgroundImageFix" result="effect1_dropShadow"/><feBlend in="SourceGraphic" in2="effect1_dropShadow" result="shape"/></filter><filter id="filter1_d" x=".104" y="166.021" width="55.175" height="52.914" filterUnits="userSpaceOnUse" color-interpolation-filters="sRGB"><feFlood flood-opacity="0" result="BackgroundImageFix"/><feColorMatrix in="SourceAlpha" values="0 0 0 0 0 0 0 0 0 0 0 0 0 0 0 0 0 0 127 0"/><feOffset/><feColorMatrix values="0 0 0 0 1 0 0 0 0 1 0 0 0 0 1 0 0 0 1 0"/><feBlend in2="BackgroundImageFix" result="effect1_dropShadow"/><feBlend in="SourceGraphic" in2="effect1_dropShadow" result="shape"/></filter><filter id="filter2_d" x="23.27" y="306.945" width="55.175" height="52.914" filterUnits="userSpaceOnUse" color-interpolation-filters="sRGB"><feFlood flood-opacity="0" result="BackgroundImageFix"/><feColorMatrix in="SourceAlpha" values="0 0 0 0 0 0 0 0 0 0 0 0 0 0 0 0 0 0 127 0"/><feOffset/><feColorMatrix values="0 0 0 0 1 0 0 0 0 1 0 0 0 0 1 0 0 0 1 0"/><feBlend in2="BackgroundImageFix" result="effect1_dropShadow"/><feBlend in="SourceGraphic" in2="effect1_dropShadow" result="shape"/></filter><filter id="filter3_d" x="129.445" y="397.677" width="55.175" height="52.914" filterUnits="userSpaceOnUse" color-interpolation-filters="sRGB"><feFlood flood-opacity="0" result="BackgroundImageFix"/><feColorMatrix in="SourceAlpha" values="0 0 0 0 0 0 0 0 0 0 0 0 0 0 0 0 0 0 127 0"/><feOffset/><feColorMatrix values="0 0 0 0 1 0 0 0 0 1 0 0 0 0 1 0 0 0 1 0"/><feBlend in2="BackgroundImageFix" result="effect1_dropShadow"/><feBlend in="SourceGraphic" in2="effect1_dropShadow" result="shape"/></filter><filter id="filter4_d" x="307.531" y="398.817" width="27.642" height="39.092" filterUnits="userSpaceOnUse" color-interpolation-filters="sRGB"><feFlood flood-opacity="0" result="BackgroundImageFix"/><feColorMatrix in="SourceAlpha" values="0 0 0 0 0 0 0 0 0 0 0 0 0 0 0 0 0 0 127 0"/><feOffset/><feColorMatrix values="0 0 0 0 1 0 0 0 0 1 0 0 0 0 1 0 0 0 1 0"/><feBlend in2="BackgroundImageFix" result="effect1_dropShadow"/><feBlend in="SourceGraphic" in2="effect1_dropShadow" result="shape"/></filter><filter id="filter5_d" x="197.977" y="0" width="78.184" height="39.092" filterUnits="userSpaceOnUse" color-interpolation-filters="sRGB"><feFlood flood-opacity="0" result="BackgroundImageFix"/><feColorMatrix in="SourceAlpha" values="0 0 0 0 0 0 0 0 0 0 0 0 0 0 0 0 0 0 127 0"/><feOffset/><feColorMatrix values="0 0 0 0 1 0 0 0 0 1 0 0 0 0 1 0 0 0 1 0"/><feBlend in2="BackgroundImageFix" result="effect1_dropShadow"/><feBlend in="SourceGraphic" in2="effect1_dropShadow" result="shape"/></filter><filter id="filter6_d" x="332.145" y="51.157" width="78.184" height="78.184" filterUnits="userSpaceOnUse" color-interpolation-filters="sRGB"><feFlood flood-opacity="0" result="BackgroundImageFix"/><feColorMatrix in="SourceAlpha" values="0 0 0 0 0 0 0 0 0 0 0 0 0 0 0 0 0 0 127 0"/><feOffset/><feColorMatrix values="0 0 0 0 1 0 0 0 0 1 0 0 0 0 1 0 0 0 1 0"/><feBlend in2="BackgroundImageFix" result="effect1_dropShadow"/><feBlend in="SourceGraphic" in2="effect1_dropShadow" result="shape"/></filter><filter id="filter7_d" x="428.861" y="166.021" width="45.173" height="39.092" filterUnits="userSpaceOnUse" color-interpolation-filters="sRGB"><feFlood flood-opacity="0" result="BackgroundImageFix"/><feColorMatrix in="SourceAlpha" values="0 0 0 0 0 0 0 0 0 0 0 0 0 0 0 0 0 0 127 0"/><feOffset/><feColorMatrix values="0 0 0 0 1 0 0 0 0 1 0 0 0 0 1 0 0 0 1 0"/><feBlend in2="BackgroundImageFix" result="effect1_dropShadow"/><feBlend in="SourceGraphic" in2="effect1_dropShadow" result="shape"/></filter><filter id="filter8_d" x="372.267" y="306.945" width="76.672" height="49.858" filterUnits="userSpaceOnUse" color-interpolation-filters="sRGB"><feFlood flood-opacity="0" result="BackgroundImageFix"/><feColorMatrix in="SourceAlpha" values="0 0 0 0 0 0 0 0 0 0 0 0 0 0 0 0 0 0 127 0"/><feOffset/><feColorMatrix values="0 0 0 0 1 0 0 0 0 1 0 0 0 0 1 0 0 0 1 0"/><feBlend in2="BackgroundImageFix" result="effect1_dropShadow"/><feBlend in="SourceGraphic" in2="effect1_dropShadow" result="shape"/></filter></defs></svg>