<svg viewBox="0 0 582 348" fill="none" xmlns="http://www.w3.org/2000/svg"><path d="M399.253 20.185h3.936a6.79 6.79 0 011.552.176c.501.107.944.288 1.328.544.395.256.709.592.944 1.008.235.416.352.923.352 1.52 0 .822-.235 1.494-.704 2.016-.459.512-1.088.86-1.888 1.04l3.024 5.024h-2.432l-2.624-4.8h-1.472v4.8h-2.016V20.185zm3.664 4.88c.288 0 .576-.02.864-.064.288-.042.544-.122.768-.24.235-.117.427-.282.576-.496.149-.224.224-.506.224-.848 0-.309-.069-.56-.208-.752a1.526 1.526 0 00-.528-.48 2.215 2.215 0 00-.736-.24 4.97 4.97 0 00-.784-.064h-1.824v3.184h1.648zm11.523 1.84c0-.245-.037-.48-.112-.704a1.526 1.526 0 00-.32-.592 1.505 1.505 0 00-.576-.4 1.847 1.847 0 00-.8-.16c-.576 0-1.067.176-1.472.528-.395.342-.613.784-.656 1.328h3.936zm1.92.864v.256c0 .086-.005.171-.016.256h-5.84c.021.278.091.534.208.768.128.224.293.422.496.592.203.16.432.288.688.384.256.096.523.144.8.144.48 0 .885-.085 1.216-.256.331-.18.603-.426.816-.736l1.28 1.024c-.757 1.024-1.856 1.536-3.296 1.536-.597 0-1.147-.09-1.648-.272a4.089 4.089 0 01-1.312-.8 3.724 3.724 0 01-.864-1.248c-.203-.5-.304-1.066-.304-1.696 0-.618.101-1.178.304-1.68.213-.512.501-.944.864-1.296a3.69 3.69 0 011.28-.832 4.27 4.27 0 011.616-.304c.533 0 1.024.091 1.472.272.459.171.853.432 1.184.784.331.342.587.774.768 1.296.192.512.288 1.115.288 1.808zm.756-2.4v-1.536h1.344V21.61h1.888v2.224h1.92v1.536h-1.92v3.568c0 .342.058.624.176.848.128.224.405.336.832.336.128 0 .266-.01.416-.032.149-.032.282-.074.4-.128l.064 1.504a2.847 2.847 0 01-.608.144 3.762 3.762 0 01-.672.064c-.512 0-.928-.069-1.248-.208a2.059 2.059 0 01-.768-.592 2.413 2.413 0 01-.384-.864 5.552 5.552 0 01-.096-1.056V25.37h-1.344zm6.573-1.536h1.92v7.68h-1.92v-7.68zm-.272-2.608c0-.309.112-.576.336-.8.235-.234.528-.352.88-.352s.645.112.88.336c.245.214.368.486.368.816 0 .331-.123.608-.368.832-.235.214-.528.32-.88.32s-.645-.112-.88-.336a1.146 1.146 0 01-.336-.816zm4.521 2.608h1.84v1.28h.032c.214-.448.512-.81.896-1.088a2.235 2.235 0 011.584-.4c.086 0 .16.011.224.032v1.76a2.598 2.598 0 00-.336-.064 2.063 2.063 0 00-.256-.016c-.437 0-.789.08-1.056.24-.266.16-.474.352-.624.576-.149.224-.25.454-.304.688a2.7 2.7 0 00-.08.56v4.112h-1.92v-7.68zm10.955 3.072c0-.245-.037-.48-.112-.704a1.513 1.513 0 00-.32-.592 1.505 1.505 0 00-.576-.4 1.844 1.844 0 00-.8-.16c-.576 0-1.066.176-1.472.528-.394.342-.613.784-.656 1.328h3.936zm1.92.864v.256c0 .086-.005.171-.016.256h-5.84c.022.278.091.534.208.768.128.224.294.422.496.592.203.16.432.288.688.384.256.096.523.144.8.144.48 0 .886-.085 1.216-.256.331-.18.603-.426.816-.736l1.28 1.024c-.757 1.024-1.856 1.536-3.296 1.536-.597 0-1.146-.09-1.648-.272a4.1 4.1 0 01-1.312-.8 3.753 3.753 0 01-.864-1.248c-.202-.5-.304-1.066-.304-1.696 0-.618.102-1.178.304-1.68.214-.512.502-.944.864-1.296a3.7 3.7 0 011.28-.832 4.274 4.274 0 011.616-.304c.534 0 1.024.091 1.472.272.459.171.854.432 1.184.784.331.342.587.774.768 1.296.192.512.288 1.115.288 1.808zm10.628 2.768h-.048c-.192.342-.502.624-.928.848-.427.214-.912.32-1.456.32-.31 0-.635-.042-.976-.128a2.942 2.942 0 01-.928-.384 2.57 2.57 0 01-.704-.736c-.182-.309-.272-.688-.272-1.136 0-.576.16-1.034.48-1.376.33-.34.752-.602 1.264-.784a6.824 6.824 0 011.696-.352 18.173 18.173 0 011.84-.096v-.192c0-.48-.176-.832-.528-1.056-.342-.234-.752-.352-1.232-.352-.406 0-.795.086-1.168.256-.374.171-.683.38-.928.624l-.992-1.168a4.34 4.34 0 011.504-.912 5.222 5.222 0 011.744-.304c.682 0 1.242.096 1.68.288.448.192.8.443 1.056.752.256.31.432.656.528 1.04.106.384.16.768.16 1.152v4.672h-1.792v-.976zm-.032-2.528h-.432c-.31 0-.635.016-.976.048-.342.022-.656.08-.944.176a1.864 1.864 0 00-.72.384c-.192.16-.288.384-.288.672 0 .182.037.336.112.464.085.118.192.214.32.288.128.075.272.128.432.16.16.032.32.048.48.048.661 0 1.162-.176 1.504-.528.341-.352.512-.832.512-1.44v-.272zm2.8-2.64v-1.536h1.344V21.61h1.888v2.224h1.92v1.536h-1.92v3.568c0 .342.059.624.176.848.128.224.406.336.832.336.128 0 .267-.01.416-.032.15-.032.283-.074.4-.128l.064 1.504c-.17.064-.373.112-.608.144a3.745 3.745 0 01-.672.064c-.512 0-.928-.069-1.248-.208a2.059 2.059 0 01-.768-.592 2.448 2.448 0 01-.384-.864 5.552 5.552 0 01-.096-1.056V25.37h-1.344zm16.446-5.184l-2.896 4.192.016.016c.149-.064.336-.112.56-.144.235-.032.448-.048.64-.048.501 0 .971.096 1.408.288.437.182.821.438 1.152.768a3.3 3.3 0 01.768 1.152c.192.438.288.912.288 1.424 0 .598-.107 1.142-.32 1.632-.213.491-.507.912-.88 1.264a3.68 3.68 0 01-1.312.784 4.479 4.479 0 01-1.616.288 4.572 4.572 0 01-1.648-.288 4.167 4.167 0 01-1.312-.832 3.888 3.888 0 01-.88-1.232 3.902 3.902 0 01-.304-1.536c0-.32.027-.618.08-.896.053-.288.128-.56.224-.816.107-.266.229-.533.368-.8.149-.266.315-.544.496-.832l2.832-4.384h2.336zm-4.384 7.776c0 .3.048.582.144.848.107.267.256.502.448.704.192.203.421.363.688.48a2.2 2.2 0 00.896.176c.651 0 1.173-.202 1.568-.608.405-.416.608-.96.608-1.632 0-.32-.053-.613-.16-.88a1.822 1.822 0 00-.432-.704 2.02 2.02 0 00-.688-.448 2.05 2.05 0 00-.864-.176c-.32 0-.619.054-.896.16a1.996 1.996 0 00-1.152 1.168c-.107.278-.16.582-.16.912zm15.974-2.112c0 .918-.091 1.744-.272 2.48-.171.736-.427 1.36-.768 1.872a3.487 3.487 0 01-1.248 1.184c-.491.278-1.056.416-1.696.416-.64 0-1.211-.138-1.712-.416a3.605 3.605 0 01-1.264-1.184c-.342-.512-.603-1.136-.784-1.872-.171-.736-.256-1.562-.256-2.48 0-.917.085-1.744.256-2.48.181-.736.442-1.36.784-1.872a3.606 3.606 0 011.264-1.184c.501-.277 1.072-.416 1.712-.416.64 0 1.205.14 1.696.416.501.278.917.672 1.248 1.184.341.512.597 1.136.768 1.872.181.736.272 1.563.272 2.48zm-1.968 0c0-.394-.027-.842-.08-1.344a6.167 6.167 0 00-.288-1.424 2.99 2.99 0 00-.608-1.12 1.31 1.31 0 00-1.04-.464c-.438 0-.79.155-1.056.464a3.145 3.145 0 00-.624 1.12 7.432 7.432 0 00-.288 1.424c-.054.502-.08.95-.08 1.344 0 .395.026.843.08 1.344.053.502.149.971.288 1.408.149.438.357.811.624 1.12.266.3.618.448 1.056.448.426 0 .773-.149 1.04-.448.266-.309.469-.682.608-1.12.149-.437.245-.906.288-1.408.053-.5.08-.949.08-1.344z" fill="#757779"/><path opacity=".2" fill-rule="evenodd" clip-rule="evenodd" d="M4.465 304.096l29.332-6.252 84.33-76.964 21.082-12.107 34.831-6.053 19.249-12.972 28.416-43.238 17.415-13.836 29.332-4.324 20.166-6.918 51.331-48.427 21.082-6.918 25.665 1.73 65.08 27.672 64.164 32.861 31.165 14.701 32.998 6.053L578.27 348H4.466v-43.904z" fill="url(#paint0_linear)"/><path d="M2.138 327.584H.598l4.298-9.912h1.26l4.256 9.912H8.844l-1.008-2.436H3.132l-.994 2.436zm1.484-3.654h3.71l-1.848-4.648-1.862 4.648zm15.293-4.214a3.222 3.222 0 00-1.148-.784 3.873 3.873 0 00-1.54-.294c-.578 0-1.101.108-1.568.322-.466.206-.863.49-1.19.854a3.88 3.88 0 00-.756 1.274 4.335 4.335 0 00-.266 1.526c0 .551.089 1.069.266 1.554.178.486.43.91.756 1.274.327.355.728.635 1.204.84a3.978 3.978 0 001.596.308c.467 0 .896-.042 1.288-.126a3.744 3.744 0 001.022-.364v-2.758h-2.198v-1.176h3.57v4.802a7.17 7.17 0 01-1.708.644 8.515 8.515 0 01-2.016.224 5.903 5.903 0 01-2.142-.378 5.062 5.062 0 01-1.666-1.078 4.99 4.99 0 01-1.092-1.652 5.567 5.567 0 01-.392-2.114c0-.774.131-1.479.392-2.114.271-.644.64-1.19 1.106-1.638a5.06 5.06 0 011.68-1.064 5.713 5.713 0 012.1-.378c.794 0 1.498.117 2.114.35.626.234 1.144.546 1.554.938l-.966 1.008zm4.807 6.636h5.18v1.232h-6.566v-9.912h6.356v1.218h-4.97v2.968h4.676v1.19h-4.676v3.304zm12.3-4.508h.434c.28 0 .55-.023.812-.07.27-.056.509-.144.714-.266a1.44 1.44 0 00.49-.518c.13-.214.196-.48.196-.798 0-.252-.047-.476-.14-.672a1.442 1.442 0 00-.392-.518 1.665 1.665 0 00-.56-.322 1.72 1.72 0 00-.658-.126c-.42 0-.78.108-1.078.322-.29.215-.509.514-.658.896l-1.232-.434a2.907 2.907 0 011.162-1.4c.541-.345 1.162-.518 1.862-.518.41 0 .798.061 1.162.182.373.112.7.28.98.504.28.224.5.504.658.84.168.336.252.724.252 1.162 0 .28-.047.542-.14.784a2.156 2.156 0 01-.364.658c-.15.196-.331.364-.546.504-.215.14-.448.243-.7.308v.028c.29.056.555.154.798.294.252.14.467.318.644.532.177.206.317.444.42.714.103.271.154.565.154.882 0 .495-.093.934-.28 1.316a2.822 2.822 0 01-.742.938 3.239 3.239 0 01-1.064.574 3.945 3.945 0 01-1.232.196c-.784 0-1.475-.177-2.072-.532-.597-.354-1.031-.905-1.302-1.652l1.26-.42c.15.43.401.78.756 1.05.364.271.807.406 1.33.406.252 0 .495-.037.728-.112a1.98 1.98 0 00.644-.364c.187-.158.336-.354.448-.588.112-.233.168-.508.168-.826 0-.345-.075-.634-.224-.868a1.693 1.693 0 00-.588-.56 2.23 2.23 0 00-.798-.308 4.14 4.14 0 00-.882-.098h-.42v-1.12zm9.516-4.424c.588 0 1.092.136 1.512.406.43.271.78.644 1.05 1.12.28.467.486 1.018.616 1.652.13.635.196 1.312.196 2.03 0 .728-.065 1.41-.196 2.044a5.417 5.417 0 01-.616 1.652c-.27.467-.62.836-1.05 1.106-.42.271-.924.406-1.512.406s-1.096-.135-1.526-.406a3.26 3.26 0 01-1.064-1.106 5.66 5.66 0 01-.602-1.652 10.123 10.123 0 01-.196-2.044c0-.718.066-1.395.196-2.03.13-.634.332-1.185.602-1.652.28-.476.635-.849 1.064-1.12.43-.27.938-.406 1.526-.406zm0 1.134c-.41 0-.746.136-1.008.406a2.72 2.72 0 00-.616 1.008 6.19 6.19 0 00-.294 1.316c-.056.476-.084.924-.084 1.344 0 .42.028.868.084 1.344.056.476.154.915.294 1.316.15.402.355.738.616 1.008.261.262.597.392 1.008.392.402 0 .728-.13.98-.392.261-.27.467-.606.616-1.008.15-.401.252-.84.308-1.316.056-.476.084-.924.084-1.344 0-.42-.028-.868-.084-1.344a5.669 5.669 0 00-.308-1.316 2.72 2.72 0 00-.616-1.008c-.252-.27-.578-.406-.98-.406zM532.932 327.584h-1.54l4.298-9.912h1.26l4.256 9.912h-1.568l-1.008-2.436h-4.704l-.994 2.436zm1.484-3.654h3.71l-1.848-4.648-1.862 4.648zm15.293-4.214a3.213 3.213 0 00-1.148-.784 3.87 3.87 0 00-1.54-.294c-.578 0-1.101.108-1.568.322-.466.206-.863.49-1.19.854a3.905 3.905 0 00-.756 1.274 4.345 4.345 0 00-.266 1.526c0 .551.089 1.069.266 1.554.178.486.43.91.756 1.274.327.355.728.635 1.204.84a3.978 3.978 0 001.596.308 6.15 6.15 0 001.288-.126 3.74 3.74 0 001.022-.364v-2.758h-2.198v-1.176h3.57v4.802a7.159 7.159 0 01-1.708.644 8.515 8.515 0 01-2.016.224 5.909 5.909 0 01-2.142-.378 5.066 5.066 0 01-1.666-1.078 5.012 5.012 0 01-1.092-1.652 5.574 5.574 0 01-.392-2.114c0-.774.131-1.479.392-2.114.271-.644.64-1.19 1.106-1.638a5.06 5.06 0 011.68-1.064 5.713 5.713 0 012.1-.378c.794 0 1.498.117 2.114.35.626.234 1.144.546 1.554.938l-.966 1.008zm4.807 6.636h5.18v1.232h-6.566v-9.912h6.356v1.218h-4.97v2.968h4.676v1.19h-4.676v3.304zm14.932-3.99c.261.066.504.178.728.336.233.15.434.332.602.546.168.215.299.462.392.742.103.28.154.579.154.896 0 .467-.089.882-.266 1.246a2.71 2.71 0 01-.728.924 3.088 3.088 0 01-1.05.574c-.401.14-.826.21-1.274.21-.448 0-.877-.07-1.288-.21a3.243 3.243 0 01-1.064-.574 2.785 2.785 0 01-.714-.924 2.813 2.813 0 01-.266-1.246c0-.326.047-.63.14-.91.103-.28.238-.527.406-.742a2.5 2.5 0 01.602-.532c.233-.149.476-.261.728-.336v-.028a2.33 2.33 0 01-1.106-.812c-.28-.382-.42-.849-.42-1.4a2.556 2.556 0 01.882-1.96c.271-.242.583-.424.938-.546.364-.13.751-.196 1.162-.196.401 0 .784.066 1.148.196.364.122.677.299.938.532a2.497 2.497 0 01.882 1.946c0 .542-.145 1.013-.434 1.414-.28.402-.644.677-1.092.826v.028zm-3.066-2.198c0 .224.037.434.112.63.084.196.196.369.336.518.149.14.322.252.518.336a1.72 1.72 0 001.288 0c.196-.084.369-.196.518-.336a1.64 1.64 0 00.35-.518c.084-.196.126-.406.126-.63 0-.233-.047-.448-.14-.644a1.46 1.46 0 00-.35-.518 1.338 1.338 0 00-.504-.336 1.72 1.72 0 00-1.288 0 1.466 1.466 0 00-.518.336c-.14.14-.252.313-.336.518a1.789 1.789 0 00-.112.644zm-.322 4.648c0 .28.047.537.14.77.093.234.224.434.392.602.177.159.383.285.616.378.243.094.509.14.798.14.28 0 .537-.046.77-.14a1.84 1.84 0 00.616-.378c.168-.168.299-.368.392-.602.103-.233.154-.49.154-.77 0-.27-.051-.518-.154-.742a1.768 1.768 0 00-.392-.602 1.749 1.749 0 00-.616-.392 2.06 2.06 0 00-.77-.14c-.28 0-.541.047-.784.14a1.938 1.938 0 00-.616.392 1.964 1.964 0 00-.406.602 1.92 1.92 0 00-.14.742zm10.272-7.392c.588 0 1.092.136 1.512.406.429.271.779.644 1.05 1.12.28.467.485 1.018.616 1.652.131.635.196 1.312.196 2.03 0 .728-.065 1.41-.196 2.044a5.425 5.425 0 01-.616 1.652 3.144 3.144 0 01-1.05 1.106c-.42.271-.924.406-1.512.406s-1.097-.135-1.526-.406a3.263 3.263 0 01-1.064-1.106 5.66 5.66 0 01-.602-1.652 10.101 10.101 0 01-.196-2.044c0-.718.065-1.395.196-2.03.131-.634.331-1.185.602-1.652.28-.476.635-.849 1.064-1.12.429-.27.938-.406 1.526-.406zm0 1.134c-.411 0-.747.136-1.008.406a2.72 2.72 0 00-.616 1.008 6.19 6.19 0 00-.294 1.316c-.056.476-.084.924-.084 1.344 0 .42.028.868.084 1.344.056.476.154.915.294 1.316.149.402.355.738.616 1.008.261.262.597.392 1.008.392.401 0 .728-.13.98-.392.261-.27.467-.606.616-1.008.149-.401.252-.84.308-1.316.056-.476.084-.924.084-1.344 0-.42-.028-.868-.084-1.344a5.684 5.684 0 00-.308-1.316 2.72 2.72 0 00-.616-1.008c-.252-.27-.579-.406-.98-.406z" fill="#757779"/><path d="M4.466 299.965c55.47 0 96.919-98.946 152.39-98.946 55.471 0 46.275-75.025 101.746-75.025s54.787-61.482 110.258-61.482 155.772 81.307 211.243 81.307" stroke="#5AC69A" stroke-width="2" stroke-linecap="round"/><path d="M143.2 149.593c-8.685 0-15.75 7.079-15.75 15.778 0 13.029 14.701 25.539 15.327 26.065a.652.652 0 00.84.005c.626-.517 15.332-12.812 15.332-26.07 0-8.699-7.065-15.778-15.749-15.778zm.002 40.473c-2.416-2.159-14.439-13.464-14.439-24.695 0-7.977 6.477-14.466 14.437-14.466 7.96 0 14.437 6.489 14.437 14.466 0 11.421-12.012 22.565-14.435 24.695z" fill="#33A34D" stroke="#33A34D"/><circle cx="142.557" cy="197.358" r="3.617" fill="#fff" stroke="#5AC69A" stroke-width="1.955"/><path d="M152.002 165.838l-5.435-2.012-2.278-2.938a2.122 2.122 0 00-.729-.586 2.051 2.051 0 00-.902-.21h-5.625c-.343.002-.681.09-.983.257a2.136 2.136 0 00-.754.698l-1.905 2.895a3.69 3.69 0 00-.612 2.019v5.709c0 .192.074.376.206.512a.693.693 0 00.497.212h1.505a2.898 2.898 0 001.006 1.54 2.76 2.76 0 001.708.595 2.76 2.76 0 001.708-.595 2.898 2.898 0 001.006-1.54h4.415a2.903 2.903 0 001.006 1.54 2.762 2.762 0 001.708.595c.618 0 1.218-.209 1.708-.595a2.898 2.898 0 001.006-1.54h1.505a.693.693 0 00.497-.212.735.735 0 00.206-.512v-5.152a.74.74 0 00-.128-.416.704.704 0 00-.336-.264zm-14.301 7.279a1.37 1.37 0 01-.781-.244 1.432 1.432 0 01-.518-.649 1.483 1.483 0 01.305-1.577 1.371 1.371 0 011.532-.314c.257.11.477.295.631.533.155.238.237.518.237.804 0 .384-.148.752-.412 1.023a1.382 1.382 0 01-.994.424zm9.843 0a1.37 1.37 0 01-.781-.244 1.446 1.446 0 01-.518-.649 1.491 1.491 0 01-.08-.836c.054-.281.188-.539.385-.741.197-.203.447-.34.72-.396a1.37 1.37 0 01.812.082c.257.11.477.295.631.533.155.238.237.518.237.804 0 .384-.148.752-.411 1.023a1.386 1.386 0 01-.995.424zm3.516-2.17h-.802a2.896 2.896 0 00-1.006-1.541 2.758 2.758 0 00-1.708-.595c-.617 0-1.217.209-1.708.595-.49.386-.844.927-1.006 1.541h-4.415a2.896 2.896 0 00-1.006-1.541 2.76 2.76 0 00-1.708-.595 2.76 2.76 0 00-1.708.595 2.896 2.896 0 00-1.006 1.541h-.802v-4.986c0-.436.128-.863.366-1.223l1.905-2.895a.722.722 0 01.256-.226.68.68 0 01.328-.077h5.625a.704.704 0 01.541.26l2.391 3.09a.764.764 0 00.309.231l5.154 1.904v3.922z" fill="#283964"/><path d="M60.042 217.702c-8.684 0-15.749 7.08-15.749 15.779 0 13.028 14.7 25.538 15.327 26.065a.656.656 0 00.84.005c.626-.517 15.332-12.812 15.332-26.07 0-8.699-7.065-15.779-15.75-15.779zm.003 40.474c-2.416-2.159-14.44-13.465-14.44-24.695 0-7.977 6.477-14.466 14.437-14.466 7.96 0 14.437 6.489 14.437 14.466 0 11.42-12.011 22.564-14.434 24.695z" fill="#017AFF" stroke="#017AFF"/><path d="M64.026 241.791l-4.933 2.775-4.933-2.775v-2.932l-1.41-.783v4.539l6.343 3.568 6.343-3.568v-4.539l-1.41.783v2.932z" fill="#283964"/><path d="M59.093 228.371l-9.867 5.116v1.222l9.867 5.481 8.457-4.698v3.892h1.41v-5.897l-9.867-5.116zm7.048 6.291l-1.41.784-5.638 3.132-5.638-3.132-1.41-.784-.977-.542 8.025-4.161 8.025 4.161-.977.542z" fill="#283964"/><circle cx="60.243" cy="265.288" r="3.617" fill="#fff" stroke="#5AC69A" stroke-width="1.955"/><path d="M205.242 62.672h2.016v4.576h5.296v-4.576h2.016V74h-2.016v-5.024h-5.296V74h-2.016V62.672zm11.285 7.456c0-.608.106-1.157.32-1.648a3.94 3.94 0 01.896-1.28 3.911 3.911 0 011.328-.816 4.61 4.61 0 011.632-.288c.576 0 1.12.096 1.632.288a3.92 3.92 0 011.328.816c.373.352.666.779.88 1.28.224.49.336 1.04.336 1.648 0 .608-.112 1.163-.336 1.664a3.945 3.945 0 01-.88 1.296c-.374.352-.816.63-1.328.832a4.393 4.393 0 01-1.632.304c-.576 0-1.12-.101-1.632-.304a4.123 4.123 0 01-1.328-.832 4.13 4.13 0 01-.896-1.296 4.196 4.196 0 01-.32-1.664zm1.952 0c0 .299.042.597.128.896.096.299.234.565.416.8.181.235.41.427.688.576.277.15.608.224.992.224s.714-.075.992-.224c.277-.15.506-.341.688-.576.181-.235.314-.501.4-.8.096-.299.144-.597.144-.896 0-.299-.048-.592-.144-.88a2.369 2.369 0 00-.4-.8 1.976 1.976 0 00-.688-.56c-.278-.15-.608-.224-.992-.224s-.715.075-.992.224a1.958 1.958 0 00-.688.56 2.58 2.58 0 00-.416.8 3.058 3.058 0 00-.128.88zm17.429-4.032c.501 0 .928.09 1.28.272.363.17.656.4.88.688.235.288.405.619.512.992.107.373.16.757.16 1.152V74h-1.92v-4.256c0-.224-.016-.459-.048-.704a1.817 1.817 0 00-.208-.656 1.337 1.337 0 00-.448-.496c-.181-.128-.427-.192-.736-.192-.299 0-.555.064-.768.192a1.684 1.684 0 00-.528.496c-.139.203-.24.432-.304.688-.064.245-.096.49-.096.736V74h-1.92v-4.64c0-.48-.117-.875-.352-1.184-.224-.32-.581-.48-1.072-.48-.288 0-.539.064-.752.192a1.589 1.589 0 00-.528.464 2.44 2.44 0 00-.304.672 2.967 2.967 0 00-.096.752V74h-1.92v-7.68h1.824v1.232h.032c.085-.192.197-.373.336-.544.149-.17.32-.325.512-.464.203-.139.432-.245.688-.32.256-.085.539-.128.848-.128.597 0 1.093.133 1.488.4s.699.619.912 1.056c.256-.47.597-.827 1.024-1.072.427-.256.928-.384 1.504-.384zm10.475 3.296c0-.245-.038-.48-.112-.704a1.526 1.526 0 00-.32-.592 1.52 1.52 0 00-.576-.4 1.846 1.846 0 00-.8-.16c-.576 0-1.067.176-1.472.528-.395.341-.614.784-.656 1.328h3.936zm1.92.864v.256a2.2 2.2 0 01-.016.256h-5.84c.021.277.09.533.208.768.128.224.293.421.496.592.202.16.432.288.688.384.256.096.522.144.8.144.48 0 .885-.085 1.216-.256.33-.181.602-.427.816-.736l1.28 1.024c-.758 1.024-1.856 1.536-3.296 1.536a4.81 4.81 0 01-1.648-.272 4.08 4.08 0 01-1.312-.8 3.724 3.724 0 01-.864-1.248c-.203-.501-.304-1.067-.304-1.696 0-.619.101-1.179.304-1.68.213-.512.501-.944.864-1.296a3.68 3.68 0 011.28-.832 4.269 4.269 0 011.616-.304c.533 0 1.024.09 1.472.272.458.17.853.432 1.184.784.33.341.586.773.768 1.296.192.512.288 1.115.288 1.808zM139.629 131.188a2.53 2.53 0 00-1.168-.88 3.775 3.775 0 00-1.408-.288c-.587 0-1.12.107-1.6.32-.48.213-.896.507-1.248.88a4.096 4.096 0 00-.8 1.312 4.769 4.769 0 00-.272 1.632c0 .619.091 1.184.272 1.696.181.512.437.955.768 1.328.341.363.747.645 1.216.848a3.95 3.95 0 001.584.304c.608 0 1.147-.117 1.616-.352a3.229 3.229 0 001.136-.96l1.616 1.136a5.262 5.262 0 01-1.84 1.472c-.725.341-1.573.512-2.544.512a6.75 6.75 0 01-2.448-.432 5.8 5.8 0 01-1.904-1.232 5.727 5.727 0 01-1.248-1.888c-.299-.736-.448-1.547-.448-2.432 0-.907.155-1.723.464-2.448a5.6 5.6 0 011.296-1.872 5.837 5.837 0 011.952-1.184 6.939 6.939 0 012.432-.416c.363 0 .741.037 1.136.112.395.064.773.171 1.136.32.363.139.704.315 1.024.528.32.213.592.469.816.768l-1.536 1.216zm7.355 7.696h-.048c-.192.341-.501.624-.928.848-.426.213-.912.32-1.456.32-.309 0-.634-.043-.976-.128a2.97 2.97 0 01-.928-.384 2.579 2.579 0 01-.704-.736c-.181-.309-.272-.688-.272-1.136 0-.576.16-1.035.48-1.376a3.227 3.227 0 011.264-.784 6.83 6.83 0 011.696-.352c.63-.064 1.243-.096 1.84-.096v-.192c0-.48-.176-.832-.528-1.056-.341-.235-.752-.352-1.232-.352-.405 0-.794.085-1.168.256a3.17 3.17 0 00-.928.624l-.992-1.168a4.367 4.367 0 011.504-.912 5.216 5.216 0 011.744-.304c.683 0 1.243.096 1.68.288.448.192.8.443 1.056.752a2.6 2.6 0 01.528 1.04c.107.384.16.768.16 1.152v4.672h-1.792v-.976zm-.032-2.528h-.432c-.309 0-.634.016-.976.048-.341.021-.656.08-.944.176a1.853 1.853 0 00-.72.384c-.192.16-.288.384-.288.672 0 .181.038.336.112.464.086.117.192.213.32.288.128.075.272.128.432.16.16.032.32.048.48.048.662 0 1.163-.176 1.504-.528.342-.352.512-.832.512-1.44v-.272zm4.061-4.176h1.84v1.28h.032c.213-.448.512-.811.896-1.088a2.237 2.237 0 011.584-.4.72.72 0 01.224.032v1.76a2.65 2.65 0 00-.336-.064 2 2 0 00-.256-.016c-.437 0-.789.08-1.056.24-.267.16-.475.352-.624.576a2.06 2.06 0 00-.304.688 2.7 2.7 0 00-.08.56v4.112h-1.92v-7.68zM26.324 196.342h7.504v1.76H28.34v2.88h5.2v1.696h-5.2v3.2h5.776v1.792h-7.792v-11.328zm17.478 11.328h-1.824v-1.152h-.032c-.267.448-.64.789-1.12 1.024-.47.235-.976.352-1.52.352a3.792 3.792 0 01-1.584-.32 3.896 3.896 0 01-1.184-.88 4.211 4.211 0 01-.752-1.296 4.933 4.933 0 01-.256-1.6c0-.565.09-1.093.272-1.584.181-.491.437-.917.768-1.28.33-.363.725-.645 1.184-.848.459-.213.96-.32 1.504-.32.352 0 .667.043.944.128.277.075.517.171.72.288.213.117.395.245.544.384.15.139.272.272.368.4h.048v-5.392h1.92v12.096zm-6.32-3.872c0 .299.043.597.128.896.096.299.235.565.416.8a2.033 2.033 0 001.664.8c.352 0 .667-.069.944-.208.277-.149.512-.341.704-.576.203-.235.352-.496.448-.784.107-.299.16-.597.16-.896 0-.299-.053-.597-.16-.896a2.277 2.277 0 00-.448-.8 2.309 2.309 0 00-.704-.576 1.963 1.963 0 00-.944-.224c-.373 0-.699.075-.976.224a1.968 1.968 0 00-.688.56c-.181.235-.32.501-.416.8a3.081 3.081 0 00-.128.88zm15.66 3.872H51.32v-1.232h-.032c-.171.384-.47.725-.896 1.024-.416.288-.912.432-1.488.432-.502 0-.934-.085-1.296-.256a2.727 2.727 0 01-.88-.704 2.893 2.893 0 01-.496-.992 4.168 4.168 0 01-.16-1.152v-4.8h1.92v4.256c0 .224.016.459.048.704.032.245.101.469.208.672.106.192.25.352.432.48.192.128.442.192.752.192.298 0 .56-.059.784-.176.234-.128.421-.288.56-.48.149-.192.261-.411.336-.656.074-.256.112-.512.112-.768v-4.224h1.92v7.68zm7.553-5.552c-.15-.213-.373-.389-.672-.528a2.024 2.024 0 00-.912-.224 1.87 1.87 0 00-.928.224 2.01 2.01 0 00-.672.56c-.17.235-.299.501-.384.8a3.078 3.078 0 00-.128.88c0 .299.043.597.128.896.096.288.235.549.416.784s.406.427.672.576c.277.139.597.208.96.208.299 0 .598-.059.896-.176.299-.117.539-.288.72-.512l1.2 1.216c-.32.341-.73.608-1.232.8a4.589 4.589 0 01-1.6.272 4.812 4.812 0 01-1.616-.272 3.908 3.908 0 01-1.328-.8 3.953 3.953 0 01-.896-1.28c-.213-.501-.32-1.072-.32-1.712 0-.619.107-1.179.32-1.68.224-.501.523-.928.896-1.28a3.987 3.987 0 011.296-.816 4.435 4.435 0 011.6-.288c.566 0 1.11.107 1.632.32.533.213.955.507 1.264.88l-1.312 1.152zm7.333 4.576h-.048c-.192.341-.502.624-.928.848-.427.213-.912.32-1.456.32-.31 0-.635-.043-.976-.128a2.964 2.964 0 01-.928-.384 2.574 2.574 0 01-.704-.736c-.182-.309-.272-.688-.272-1.136 0-.576.16-1.035.48-1.376.33-.341.752-.603 1.264-.784a6.823 6.823 0 011.696-.352c.629-.064 1.242-.096 1.84-.096v-.192c0-.48-.176-.832-.528-1.056-.342-.235-.752-.352-1.232-.352-.406 0-.795.085-1.168.256a3.156 3.156 0 00-.928.624l-.992-1.168a4.357 4.357 0 011.504-.912 5.213 5.213 0 011.744-.304c.682 0 1.242.096 1.68.288.448.192.8.443 1.056.752a2.6 2.6 0 01.528 1.04c.106.384.16.768.16 1.152v4.672h-1.792v-.976zm-.032-2.528h-.432c-.31 0-.635.016-.976.048-.342.021-.656.08-.944.176a1.853 1.853 0 00-.72.384c-.192.16-.288.384-.288.672 0 .181.037.336.112.464.085.117.192.213.32.288.128.075.272.128.432.16.16.032.32.048.48.048.661 0 1.162-.176 1.504-.528.341-.352.512-.832.512-1.44v-.272zm2.8-2.64v-1.536h1.344v-2.224h1.888v2.224h1.92v1.536h-1.92v3.568c0 .341.059.624.176.848.128.224.406.336.832.336.128 0 .267-.011.416-.032.15-.032.283-.075.4-.128l.064 1.504c-.17.064-.373.112-.608.144a3.73 3.73 0 01-.672.064c-.512 0-.928-.069-1.248-.208a2.06 2.06 0 01-.768-.592 2.437 2.437 0 01-.384-.864 5.558 5.558 0 01-.096-1.056v-3.584h-1.344zm6.574-1.536h1.92v7.68h-1.92v-7.68zm-.272-2.608c0-.309.112-.576.336-.8.234-.235.528-.352.88-.352s.645.112.88.336c.245.213.368.485.368.816 0 .331-.123.608-.368.832-.235.213-.528.32-.88.32s-.645-.112-.88-.336a1.147 1.147 0 01-.336-.816zm4.073 6.416c0-.608.107-1.157.32-1.648.224-.501.523-.928.896-1.28a3.915 3.915 0 011.328-.816 4.61 4.61 0 011.632-.288c.576 0 1.12.096 1.632.288.512.192.955.464 1.328.816.373.352.667.779.88 1.28.224.491.336 1.04.336 1.648 0 .608-.112 1.163-.336 1.664a3.935 3.935 0 01-.88 1.296 4.131 4.131 0 01-1.328.832 4.387 4.387 0 01-1.632.304c-.576 0-1.12-.101-1.632-.304a4.132 4.132 0 01-1.328-.832 4.148 4.148 0 01-.896-1.296 4.207 4.207 0 01-.32-1.664zm1.952 0c0 .299.043.597.128.896.096.299.235.565.416.8.181.235.41.427.688.576.277.149.608.224.992.224s.715-.075.992-.224c.277-.149.507-.341.688-.576.181-.235.315-.501.4-.8.096-.299.144-.597.144-.896 0-.299-.048-.592-.144-.88a2.349 2.349 0 00-.4-.8 1.966 1.966 0 00-.688-.56c-.277-.149-.608-.224-.992-.224s-.715.075-.992.224a1.968 1.968 0 00-.688.56c-.181.235-.32.501-.416.8a3.081 3.081 0 00-.128.88zm8.262-3.808h1.824v1.232h.032c.17-.384.464-.72.88-1.008.426-.299.928-.448 1.504-.448.501 0 .928.091 1.28.272.362.171.656.4.88.688.234.288.405.619.512.992.106.373.16.757.16 1.152v4.8h-1.92v-4.256c0-.224-.016-.459-.048-.704a1.827 1.827 0 00-.208-.656 1.332 1.332 0 00-.448-.496c-.182-.128-.427-.192-.736-.192-.31 0-.576.064-.8.192-.224.117-.411.272-.56.464a2.177 2.177 0 00-.32.672 2.566 2.566 0 00-.112.752v4.224h-1.92v-7.68z" fill="#757779"/><path d="M228.106 83.411c-8.684 0-15.749 7.08-15.749 15.779 0 13.028 14.7 25.538 15.326 26.065a.658.658 0 00.419.156.658.658 0 00.421-.151c.626-.517 15.332-12.812 15.332-26.07 0-8.7-7.065-15.779-15.749-15.779zm.003 40.474c-2.417-2.159-14.44-13.465-14.44-24.695 0-7.977 6.477-14.466 14.437-14.466 7.96 0 14.437 6.489 14.437 14.466 0 11.42-12.012 22.564-14.434 24.695z" fill="#FFC40D" stroke="#FFC40D"/><circle cx="228.204" cy="130.879" r="3.617" fill="#fff" stroke="#5AC69A" stroke-width="1.955"/><path fill-rule="evenodd" clip-rule="evenodd" d="M227.766 92.548l8.761 7.936-.978.971-1.391-1.253v8.929l-.689.684h-4.132l-.689-.684v-4.789h-2.755v4.789l-.689.684h-4.133l-.688-.684v-8.918l-1.378 1.242-.978-.971 8.747-7.936h.992zm-6.006 6.421v9.478h2.755v-4.789l.689-.684h4.133l.688.684v4.789h2.755v-9.486L227.27 94l-5.51 4.97z" fill="#283964"/><circle cx="366.925" cy="59.653" r="4.904" fill="#fff" stroke="#5AC69A" stroke-width="1.955"/><path d="M367.165 1c-11.029 0-20 9.019-20 20.101 0 16.599 18.668 32.536 19.463 33.207a.828.828 0 001.067.007c.795-.66 19.47-16.323 19.47-33.214 0-11.082-8.972-20.101-20-20.101zm.003 51.562c-3.068-2.75-18.337-17.153-18.337-31.46 0-10.163 8.225-18.43 18.334-18.43 10.108 0 18.333 8.267 18.333 18.43 0 14.55-15.253 28.747-18.33 31.46z" fill="#DF3C27" stroke="#DF3C27"/><g clip-path="url(#clip0)"><path d="M372.713 36.391c-.306 0-.606-.092-.861-.265l-5.18-3.483a.154.154 0 00-.174 0l-5.18 3.483a1.54 1.54 0 01-2.306-.76 1.55 1.55 0 01-.042-.919l1.702-6.019a.16.16 0 00-.056-.167l-4.903-3.867a1.547 1.547 0 01-.546-1.715 1.546 1.546 0 011.442-1.071l6.25-.237a.16.16 0 00.139-.105l2.153-5.873a1.544 1.544 0 011.448-1.015 1.537 1.537 0 011.448 1.015l2.153 5.873c.01.03.029.055.054.073.024.019.054.03.084.032l6.25.237a1.54 1.54 0 011.443 1.071 1.548 1.548 0 01-.547 1.715l-4.903 3.867a.153.153 0 00-.055.167l1.701 6.02a1.56 1.56 0 01-.278 1.346 1.551 1.551 0 01-1.236.597zm-6.125-5.17c.308.01.606.112.855.293l5.18 3.484a.15.15 0 00.183.001.154.154 0 00.053-.175l-1.701-6.02a1.536 1.536 0 01.535-1.637l4.902-3.867a.15.15 0 00.057-.076.15.15 0 00-.056-.174.149.149 0 00-.091-.028l-6.25-.237a1.54 1.54 0 01-1.389-1.017l-2.153-5.873a.152.152 0 00-.291 0l-2.132 5.866a1.538 1.538 0 01-1.389 1.017l-6.25.237a.15.15 0 00-.091.028.152.152 0 00-.056.174.15.15 0 00.057.077l4.909 3.873a1.545 1.545 0 01.535 1.637l-1.694 6.02a.141.141 0 000 .093c.01.03.029.056.055.074a.138.138 0 00.181 0l5.18-3.484c.254-.168.551-.258.854-.257l.007-.028z" fill="#283964"/></g><defs><linearGradient id="paint0_linear" x1="-28.215" y1="41.951" x2="-28.215" y2="320.608" gradientUnits="userSpaceOnUse"><stop stop-color="#61D3A5"/><stop offset=".447" stop-color="#61D3A5"/><stop offset="1" stop-color="#fff" stop-opacity=".01"/></linearGradient><clipPath id="clip0"><path fill="#fff" transform="translate(353.832 12.704)" d="M0 0h25v25.081H0z"/></clipPath></defs></svg>