<svg height="46" viewBox="0 0 109 46" width="109" xmlns="http://www.w3.org/2000/svg" xmlns:xlink="http://www.w3.org/1999/xlink"><defs><path id="a" d="m16.2 44.09c.54 0 1.0183333-.0883333 1.435-.265s.74-.4233333.97-.74.345-.6816667.345-1.095c0-.38-.0983333-.6966667-.295-.95s-.48-.4616667-.85-.625-.8516667-.3116667-1.445-.445c-.56-.1266667-.9566667-.2633333-1.19-.41s-.35-.3566667-.35-.63c0-.3266667.1316667-.5816667.395-.765s.6216667-.275 1.075-.275c.3733333 0 .6883333.0483333.945.145s.5216667.245.795.445c.0933333.0533333.1683333.09.225.11s.1183333.03.185.03c.1133333 0 .2116667-.0516667.295-.155s.125-.225.125-.365c0-.1066667-.0183333-.195-.055-.265s-.0983333-.1416667-.185-.215c-.6-.5066667-1.3766667-.76-2.33-.76-.52 0-.9883333.0916667-1.405.275s-.7416667.4383333-.975.765-.35.6966667-.35 1.11c0 .4.0933333.73.28.99s.4633333.4733333.83.64.8433333.3133333 1.43.44c.5666667.1266667.9716667.2583333 1.215.395s.365.3316667.365.585c0 .3266667-.13.575-.39.745s-.6333333.255-1.12.255c-.38 0-.7266667-.0466667-1.04-.14s-.6133333-.2433333-.9-.45c-.1533333-.0933333-.29-.14-.41-.14-.1133333 0-.2116667.0516667-.295.155s-.125.225-.125.365c0 .2066667.0766667.3666667.23.48.2866667.2333333.6583333.4183333 1.115.555s.9416667.205 1.455.205zm5.6-.01c.3266667 0 .62-.0716667.88-.215s.4666667-.3483333.62-.615v.25c0 .1733333.0533333.31.16.41s.25.15.43.15c.1866667 0 .3383333-.0533333.455-.16s.175-.2466667.175-.42v-3.88c0-.18-.0566667-.3233333-.17-.43s-.2666667-.16-.46-.16c-.1866667 0-.3366667.0533333-.45.16s-.17.25-.17.43v2.23c0 .38-.105.685-.315.915s-.4883333.345-.835.345c-.3 0-.52-.0833333-.66-.25s-.21-.4233333-.21-.77v-2.47c0-.18-.0566667-.3233333-.17-.43s-.2666667-.16-.46-.16c-.1866667 0-.3366667.0533333-.45.16s-.17.25-.17.43v2.46c0 1.3466667.6 2.02 1.8 2.02zm4.65 1.77c.1866667 0 .3366667-.05.45-.15s.17-.2366667.17-.41v-2.04c.1466667.26.3566667.4633333.63.61s.5833333.22.93.22c.4266667 0 .8033333-.1033333 1.13-.31s.5816667-.5.765-.88.275-.8233333.275-1.33-.0916667-.955-.275-1.345-.44-.6916667-.77-.905-.705-.32-1.125-.32c-.3533333 0-.6683333.075-.945.225s-.4883333.3616667-.635.635v-.25c0-.18-.0566667-.3233333-.17-.43s-.2633333-.16-.45-.16-.335.0533333-.445.16-.165.25-.165.43v5.67c0 .1733333.0583333.3133333.175.42s.2683333.16.455.16zm1.85-2.74c-.4 0-.7083333-.1366667-.925-.41s-.325-.66-.325-1.16c0-.5066667.1083333-.8966667.325-1.17s.525-.41.925-.41c.3933333 0 .7.14.92.42s.33.6733333.33 1.18c0 .4933333-.11.875-.33 1.145s-.5266667.405-.92.405zm5.82.97c.26 0 .5333333-.0383333.82-.115s.5433333-.1783333.77-.305c.2466667-.14.37-.3133333.37-.52 0-.1466667-.035-.2633333-.105-.35s-.1616667-.13-.275-.13c-.0933333 0-.24.0533333-.44.16-.2066667.0933333-.3916667.1666667-.555.22s-.3516667.08-.565.08c-.42 0-.74-.1083333-.96-.325s-.35-.555-.39-1.015h2.95c.2533333 0 .38-.1433333.38-.43 0-.48-.09-.8966667-.27-1.25s-.4333333-.6266667-.76-.82-.71-.29-1.15-.29c-.46 0-.8716667.1066667-1.235.32s-.645.5133333-.845.9-.3.83-.3 1.33c0 .7866667.23 1.4066667.69 1.86s1.0833333.68 1.87.68zm.93-2.97h-2.26c.04-.4.1616667-.7066667.365-.92s.475-.32.815-.32c.3333333 0 .5933333.105.78.315s.2866667.5183333.3.925zm2.71 2.95c.18 0 .33-.0516667.45-.155s.18-.2516667.18-.445v-2.1c0-.34.0916667-.6233333.275-.85s.4716667-.36.865-.4l.3-.03c.2266667-.0266667.3833333-.0833333.47-.17s.13-.22.13-.4c0-.1733333-.05-.3033333-.15-.39s-.2366667-.1233333-.41-.11l-.14.01c-.3066667.02-.585.11-.835.27s-.4383333.3866667-.565.68v-.4c0-.18-.0533333-.3183333-.16-.415s-.2466667-.145-.42-.145-.3183333.05-.435.15-.175.2433333-.175.43v3.87c0 .1933333.0583333.3416667.175.445s.265.155.445.155zm12.33 0c.1733333 0 .3133333-.0533333.42-.16s.16-.2533333.16-.44v-5.92c0-.1933333-.0566667-.3483333-.17-.465s-.2633333-.175-.45-.175c-.2466667 0-.4433333.1433333-.59.43l-2.21 4.23-2.22-4.23c-.1466667-.2866667-.35-.43-.61-.43-.1866667 0-.335.0583333-.445.175s-.165.2716667-.165.465v5.92c0 .1866667.05.3333333.15.44s.2366667.16.41.16.3116667-.055.415-.165.155-.255.155-.435v-4.07l1.71 3.17c.08.1533333.1666667.2633333.26.33s.2033333.1.33.1.2366667-.035.33-.105.18-.1783333.26-.325l1.7-3.22v4.12c0 .1866667.05.3333333.15.44s.2366667.16.41.16zm4.23.02c.5 0 .9383333-.1033333 1.315-.31s.6666667-.5033333.87-.89.305-.8366667.305-1.35-.1016667-.9616667-.305-1.345-.4933333-.6783333-.87-.885-.815-.31-1.315-.31-.9383333.1033333-1.315.31-.6683333.5016667-.875.885-.31.8316667-.31 1.345.1033333.9633333.31 1.35.4983333.6833333.875.89.815.31 1.315.31zm-.01-.97c-.4 0-.7066667-.1333333-.92-.4s-.32-.66-.32-1.18c0-.5133333.1083333-.905.325-1.175s.525-.405.925-.405.7066667.135.92.405.32.6616667.32 1.175c0 .52-.1066667.9133333-.32 1.18s-.5233333.4-.93.4zm7.49.95c.1933333 0 .345-.0533333.455-.16s.165-.2533333.165-.44v-2.46c0-.6733333-.1433333-1.1766667-.43-1.51s-.7233333-.5-1.31-.5c-.3533333 0-.67.0733333-.95.22s-.5033333.3566667-.67.63v-.27c0-.1666667-.055-.3016667-.165-.405s-.2516667-.155-.425-.155c-.1933333 0-.3466667.0533333-.46.16s-.17.2466667-.17.42v3.87c0 .1866667.055.3333333.165.44s.2616667.16.455.16.3466667-.0533333.46-.16.17-.2533333.17-.44v-2.23c0-.38.1083333-.6833333.325-.91s.505-.34.865-.34c.3066667 0 .5316667.0866667.675.26s.215.45.215.83v2.39c0 .1866667.0566667.3333333.17.44s.2666667.16.46.16zm4.18.02c.26 0 .5333333-.0383333.82-.115s.5433333-.1783333.77-.305c.2466667-.14.37-.3133333.37-.52 0-.1466667-.035-.2633333-.105-.35s-.1616667-.13-.275-.13c-.0933333 0-.24.0533333-.44.16-.2066667.0933333-.3916667.1666667-.555.22s-.3516667.08-.565.08c-.42 0-.74-.1083333-.96-.325s-.35-.555-.39-1.015h2.95c.2533333 0 .38-.1433333.38-.43 0-.48-.09-.8966667-.27-1.25s-.4333333-.6266667-.76-.82-.71-.29-1.15-.29c-.46 0-.8716667.1066667-1.235.32s-.645.5133333-.845.9-.3.83-.3 1.33c0 .7866667.23 1.4066667.69 1.86s1.0833333.68 1.87.68zm.93-2.97h-2.26c.04-.4.1616667-.7066667.365-.92s.475-.32.815-.32c.3333333 0 .5933333.105.78.315s.2866667.5183333.3.925zm3.21 4.74c.24 0 .4166667-.1133333.53-.34l2.73-5.72c.04-.08.06-.1566667.06-.23 0-.1533333-.0616667-.2816667-.185-.385s-.2616667-.155-.415-.155c-.1066667 0-.205.0283333-.295.085s-.1616667.145-.215.265l-1.39 3.08-1.4-3.09c-.0533333-.12-.1266667-.2083333-.22-.265s-.1966667-.085-.31-.085c-.1666667 0-.315.0533333-.445.16s-.195.2366667-.195.39c0 .0866667.0166667.1633333.05.23l1.86 3.87-.68 1.43c-.04.0933333-.06.1766667-.06.25 0 .1466667.0583333.2683333.175.365s.2516667.145.405.145zm12.72-1.81c.16 0 .3016667-.0533333.425-.16s.185-.2366667.185-.39c0-.0866667-.02-.1733333-.06-.26l-2.77-5.93c-.06-.1333333-.1516667-.235-.275-.305s-.255-.105-.395-.105-.2716667.035-.395.105-.215.1716667-.275.305l-2.76 5.93c-.04.0866667-.06.1733333-.06.26 0 .1533333.0633333.2833333.19.39s.2666667.16.42.16c.1133333 0 .2166667-.0283333.31-.085s.1666667-.145.22-.265l.6-1.34h3.52l.6 1.34c.0533333.12.1266667.2083333.22.265s.1933333.085.3.085zm-1.56-2.69h-2.64l1.32-2.97zm3.66 4.5c.1866667 0 .3366667-.05.45-.15s.17-.2366667.17-.41v-2.04c.1466667.26.3566667.4633333.63.61s.5833333.22.93.22c.4266667 0 .8033333-.1033333 1.13-.31s.5816667-.5.765-.88.275-.8233333.275-1.33-.0916667-.955-.275-1.345-.44-.6916667-.77-.905-.705-.32-1.125-.32c-.3533333 0-.6683333.075-.945.225s-.4883333.3616667-.635.635v-.25c0-.18-.0566667-.3233333-.17-.43s-.2633333-.16-.45-.16-.335.0533333-.445.16-.165.25-.165.43v5.67c0 .1733333.0583333.3133333.175.42s.2683333.16.455.16zm1.85-2.74c-.4 0-.7083333-.1366667-.925-.41s-.325-.66-.325-1.16c0-.5066667.1083333-.8966667.325-1.17s.525-.41.925-.41c.3933333 0 .7.14.92.42s.33.6733333.33 1.18c0 .4933333-.11.875-.33 1.145s-.5266667.405-.92.405zm4.16 2.74c.1866667 0 .3366667-.05.45-.15s.17-.2366667.17-.41v-2.04c.1466667.26.3566667.4633333.63.61s.5833333.22.93.22c.4266667 0 .8033333-.1033333 1.13-.31s.5816667-.5.765-.88.275-.8233333.275-1.33-.0916667-.955-.275-1.345-.44-.6916667-.77-.905-.705-.32-1.125-.32c-.3533333 0-.6683333.075-.945.225s-.4883333.3616667-.635.635v-.25c0-.18-.0566667-.3233333-.17-.43s-.2633333-.16-.45-.16-.335.0533333-.445.16-.165.25-.165.43v5.67c0 .1733333.0583333.3133333.175.42s.2683333.16.455.16zm1.85-2.74c-.4 0-.7083333-.1366667-.925-.41s-.325-.66-.325-1.16c0-.5066667.1083333-.8966667.325-1.17s.525-.41.925-.41c.3933333 0 .7.14.92.42s.33.6733333.33 1.18c0 .4933333-.11.875-.33 1.145s-.5266667.405-.92.405z"/></defs><g fill="none"><g><use fill="#000" xlink:href="#a"/><use fill="#fff" xlink:href="#a"/></g><path d="m99.0664673 15.6825555c.5655956 0 1.0730327.3489535 1.2751347.8767458l2.698574 7.0270528h.045073l2.394694-7.0226908c.163936-.4824768.594211-.8195664 1.092598-.8723975l.137464-.0072564c.914549 0 1.542665.9189111 1.211159 1.7709395l-4.450612 11.4311376c-.770606 1.9701338-1.721504 3.102779-4.1220138 3.102779-.0741527 0-.1483053-.001454-.2224579-.004362-.6441102-.0218096-1.141369-.5728654-1.0803022-1.2140676l.0116318-.1192258c.055251-.5786814.542332-1.0192353 1.1239213-1.0192353h.0087239c1.1559089 0 1.4728749-.5655956 1.9250609-1.6982407l.543786-1.3812746-3.8472136-8.9651991c-.3699413-.8622693.2179256-1.8176589 1.128648-1.8991063zm-8.3225428-.3155122c3.0344421 0 5.2532053 1.9701337 5.2532053 5.8885916v.0058159c0 .3940268-.3213281.7168088-.7182628.7168088h-7.5693847c.1134099 1.5397577 1.5179481 2.6724029 3.1027789 2.6724029.9698002 0 1.7098726-.2777089 2.2754681-.7487963.3758521-.3145428.9154176-.3236504 1.3241549-.0654001l.1080088.0770319c.5714115.4580016.5903131 1.3362014.0189016 1.794203-.9683461.7749678-2.1969535 1.1631786-3.7047238 1.1631786-3.3514083 0-5.8420645-2.1518804-5.8420645-5.6835814 0-3.5098914 2.4688466-5.8202549 5.7519182-5.8202549zm-26.8345303-.001454c3.2845255 0 5.9104012 2.2870999 5.9104012 5.706845s-2.6273296 5.7969913-5.9104012 5.7969913-5.9104013-2.3772462-5.9104013-5.7969913 2.6258757-5.706845 5.9104013-5.706845zm-39.8613376-5.2793769c.0974163 0 .1933785 0 .2907947.0232636h3.4182911c1.1631786 0 2.2783761.2137341 3.3208749.6412022 1.0177813.4274681 1.9381464 1.0454068 2.7145681 1.7811172.7764217.7836916 1.4074461 1.6633454 1.8189205 2.6607711.436192 1.0206892.654288 2.1373407.654288 3.2554461 0 1.139915-.218096 2.2100393-.654288 3.2307285-.4129284 1.0206893-1.0424988 1.8770795-1.8189205 2.6840347-.7749678.7371644-1.6967868 1.3303855-2.7145681 1.7578536-1.0424988.4274682-2.1576963.6644658-3.3208749.6644658h-3.7817844c-.9930637-.0479811-1.7694855-.8084091-1.7694855-1.8058348v-13.0872132c0-.9988796.8244029-1.8058348 1.8421841-1.8058348zm-22.18987879-.0014539c.96689221 0 1.7447679.811317 1.74622188 1.7883871v13.1439181c0 .9538065-.77932967 1.7651236-1.74622188 1.7651236s-1.76948544-.8113171-1.76948544-1.7651236v-13.1439181c0-.9770701.80259323-1.7883871 1.76948544-1.7883871zm15.64620609-10.0193297c.4710874-.01599371.9479906.15412116 1.308576.51470653l5.1877765 5.18777655c.6906373.68918332.6906373 1.80874272 0 2.49938002-.6891833.69063729-1.8087427.69063729-2.49938 0l-2.0777278-2.07918175v18.80423605c0 .97707-.7909614 1.7883871-1.7738473 1.7883871-.5757734 0-1.0788482-.2617152-1.4379796-.7153549-.0247175-.0232635-.0247175-.0479811-.0247175-.0712446l-6.35095517-9.135314v8.1335264c0 .97707-.79096145 1.7883871-1.79711093 1.7883871-.98288592 0-1.79711094-.8098631-1.79711094-1.7883871v-13.1192006c0-.9770701.81422502-1.7883871 1.79711094-1.7883871.67028166 0 1.24605507.3576774 1.55720535.9058253l6.25499295 9.0408057v-14.10790248l-2.3438049 2.34380488c-.6891833.69063729-1.8087427.69063729-2.49938 0-.6906373-.68918332-.6906373-1.80874273 0-2.49938002l5.1877765-5.18777655c.3605854-.36058537.8374886-.53070024 1.3085759-.51470653zm60.9418348 15.3001605c2.8308859 0 4.0086043 2.17369 4.0086043 4.3939072v5.6370542c0 .6397483-.5176145 1.1573628-1.1573627 1.1573628h-.4027506c-.6397483 0-1.1573627-.5176145-1.1573627-1.1573628v-4.8664484c0-1.2911283-.2951566-2.8992227-2.0384705-2.8992227-1.7215044 0-2.5357294 1.4946845-2.5357294 2.9442959v4.8213752c0 .6397483-.5176144 1.1573628-1.1573627 1.1573628h-.4027506c-.6397482 0-1.1573627-.5176145-1.1573627-1.1573628v-8.5551786c0-.6412022.5190685-1.1588166 1.1573627-1.1588166h.2660771c.6397483 0 1.1573627.5176144 1.1573627 1.1573627v.5859512h.0450732c.4754493-1.087572 1.7665775-2.0602801 3.3746719-2.0602801zm-26.9959213-.001454c2.8337939.001454 4.0115122 2.175144 4.0115122 4.3939072v5.434952c0 .7061178-.5383625 1.2873046-1.2283999 1.3532362l-.1310651.0062288c-.7502502 0-1.359465-.6077608-1.359465-1.359465v-4.6658002c0-1.2911282-.2937026-2.8992226-2.0384705-2.8992226-1.6982407 0-2.4005098 1.5848308-2.4005098 2.989369v4.5741998c0 .7061179-.5383625 1.2873047-1.2283999 1.3532363l-.1310651.0062287c-.7502502 0-1.359465-.6077608-1.359465-1.359465v-5.2081322c0-1.3362014-.6339323-2.3554366-2.0152069-2.3554366-1.629904 0-2.3772463 1.4946845-2.3772463 2.9442958v4.619273c0 .7061179-.5383625 1.2873047-1.2283999 1.3532363l-.1310651.0062287c-.7502502 0-1.3594649-.6077608-1.3594649-1.359465v-8.2207647c0-.667919.5073287-1.2182706 1.158981-1.2844555l.1321472-.0066728c.7124469 0 1.2911282.5772274 1.2911282 1.2911283v.4536396h.0450732c.4754493-1.0643084 1.629904-2.0602801 3.3746719-2.0602801 1.6764312 0 2.7858128.8374886 3.3964815 2.0602801.7240787-1.3129378 1.9483242-2.0602801 3.5782282-2.0602801zm12.4590968 2.2187632c-2.1518804 0-3.1478521 1.7883871-3.1478521 3.4880818 0 1.6996948.9959717 3.533155 3.1478521 3.533155s3.1478521-1.8349142 3.1478521-3.533155c0-1.6982407-.9959717-3.4880818-3.1478521-3.4880818zm-36.2234965-3.9838867h-1.9657718v9.6674681h1.9657718c1.3856365 0 2.6447774-.4798111 3.6029457-1.4147159.9567144-.9101873 1.4612431-2.1097152 1.4612431-3.4066594 0-1.2954901-.5030747-2.4950181-1.4612431-3.4066593-.9567144-.9116412-2.2173092-1.4394335-3.6029457-1.4394335zm63.0347632 3.803594c-1.6080944 0-2.8992227 1.1093816-3.0126326 2.6273297h5.5716255c0-1.4045382-.7924154-2.6273297-2.5589929-2.6273297z" fill="#fff"/></g></svg>