<svg viewBox="0 0 118 140" fill="none" xmlns="http://www.w3.org/2000/svg">
<path d="M116.255 27.0738C115.73 26.4751 115.088 25.9911 114.368 25.652C113.648 25.3129 112.866 25.126 112.071 25.1031C99.7132 24.78 84.0763 11.5661 73.7378 6.38075C67.3516 3.18767 63.1355 1.08229 59.9693 0.527671C59.3264 0.433993 58.6732 0.435807 58.0309 0.533056C54.8647 1.08767 50.6486 3.19306 44.2678 6.38613C33.9293 11.5661 18.2924 24.78 5.93471 25.1031C5.13871 25.1272 4.35614 25.3146 3.63553 25.6536C2.91491 25.9926 2.27161 26.476 1.74548 27.0738C0.654952 28.3076 0.0922934 29.9202 0.178559 31.5646C2.83317 85.5346 22.1909 118.935 56.157 138.347C57.0401 138.848 58.0201 139.106 58.9947 139.106C59.9693 139.106 60.9493 138.848 61.8378 138.347C95.804 118.935 115.156 85.5346 117.816 31.5646C117.908 29.9204 117.346 28.3067 116.255 27.0738ZM89.2455 48.3L60.5832 90.5961C59.5547 92.1146 57.9393 93.1215 56.3401 93.1215C54.7355 93.1215 52.9532 92.2438 51.8278 91.1184L31.6247 70.91C30.9651 70.2479 30.5948 69.3515 30.5948 68.4169C30.5948 67.4824 30.9651 66.5859 31.6247 65.9238L36.6163 60.9215C37.2797 60.2645 38.1756 59.896 39.1093 59.896C40.043 59.896 40.939 60.2645 41.6024 60.9215L54.7409 74.06L77.5663 40.3684C78.0944 39.5975 78.9061 39.0668 79.8242 38.8922C80.7422 38.7177 81.6921 38.9135 82.4663 39.4369L88.3086 43.4C89.0804 43.9273 89.6122 44.7386 89.7878 45.6567C89.9633 46.5748 89.7684 47.5251 89.2455 48.3Z" fill="#33A34D"/>
</svg>
